<svg xmlns="http://www.w3.org/2000/svg" xmlns:xlink="http://www.w3.org/1999/xlink" width="600" height="400" viewBox="0 0 2400 1600">
<defs>
  <clipPath id="clip390">
    <rect x="0" y="0" width="2400" height="1600"></rect>
  </clipPath>
</defs>
<path clip-path="url(#clip390)" d="
M0 1600 L2400 1600 L2400 0 L0 0  Z
  " fill="#ffffff" fill-rule="evenodd" fill-opacity="1"></path>
<defs>
  <clipPath id="clip391">
    <rect x="480" y="0" width="1681" height="1600"></rect>
  </clipPath>
</defs>
<path clip-path="url(#clip390)" d="
M212.976 1395.02 L1640.15 1395.02 L1640.15 173.228 L212.976 173.228  Z
  " fill="#ffffff" fill-rule="evenodd" fill-opacity="1"></path>
<defs>
  <clipPath id="clip392">
    <rect x="212" y="173" width="1428" height="1223"></rect>
  </clipPath>
</defs>
<polyline clip-path="url(#clip392)" style="stroke:#000000; stroke-width:2; stroke-opacity:0.1; fill:none" points="
  284.335,1395.02 284.335,173.228 
  "></polyline>
<polyline clip-path="url(#clip392)" style="stroke:#000000; stroke-width:2; stroke-opacity:0.1; fill:none" points="
  427.052,1395.02 427.052,173.228 
  "></polyline>
<polyline clip-path="url(#clip392)" style="stroke:#000000; stroke-width:2; stroke-opacity:0.1; fill:none" points="
  569.769,1395.02 569.769,173.228 
  "></polyline>
<polyline clip-path="url(#clip392)" style="stroke:#000000; stroke-width:2; stroke-opacity:0.1; fill:none" points="
  712.486,1395.02 712.486,173.228 
  "></polyline>
<polyline clip-path="url(#clip392)" style="stroke:#000000; stroke-width:2; stroke-opacity:0.1; fill:none" points="
  855.203,1395.02 855.203,173.228 
  "></polyline>
<polyline clip-path="url(#clip392)" style="stroke:#000000; stroke-width:2; stroke-opacity:0.1; fill:none" points="
  997.92,1395.02 997.92,173.228 
  "></polyline>
<polyline clip-path="url(#clip392)" style="stroke:#000000; stroke-width:2; stroke-opacity:0.1; fill:none" points="
  1140.64,1395.02 1140.64,173.228 
  "></polyline>
<polyline clip-path="url(#clip392)" style="stroke:#000000; stroke-width:2; stroke-opacity:0.1; fill:none" points="
  1283.35,1395.02 1283.35,173.228 
  "></polyline>
<polyline clip-path="url(#clip392)" style="stroke:#000000; stroke-width:2; stroke-opacity:0.1; fill:none" points="
  1426.07,1395.02 1426.07,173.228 
  "></polyline>
<polyline clip-path="url(#clip392)" style="stroke:#000000; stroke-width:2; stroke-opacity:0.1; fill:none" points="
  1568.79,1395.02 1568.79,173.228 
  "></polyline>
<polyline clip-path="url(#clip392)" style="stroke:#000000; stroke-width:2; stroke-opacity:0.1; fill:none" points="
  212.976,1333.93 1640.15,1333.93 
  "></polyline>
<polyline clip-path="url(#clip392)" style="stroke:#000000; stroke-width:2; stroke-opacity:0.1; fill:none" points="
  212.976,1211.75 1640.15,1211.75 
  "></polyline>
<polyline clip-path="url(#clip392)" style="stroke:#000000; stroke-width:2; stroke-opacity:0.1; fill:none" points="
  212.976,1089.57 1640.15,1089.57 
  "></polyline>
<polyline clip-path="url(#clip392)" style="stroke:#000000; stroke-width:2; stroke-opacity:0.1; fill:none" points="
  212.976,967.395 1640.15,967.395 
  "></polyline>
<polyline clip-path="url(#clip392)" style="stroke:#000000; stroke-width:2; stroke-opacity:0.1; fill:none" points="
  212.976,845.216 1640.15,845.216 
  "></polyline>
<polyline clip-path="url(#clip392)" style="stroke:#000000; stroke-width:2; stroke-opacity:0.1; fill:none" points="
  212.976,723.036 1640.15,723.036 
  "></polyline>
<polyline clip-path="url(#clip392)" style="stroke:#000000; stroke-width:2; stroke-opacity:0.1; fill:none" points="
  212.976,600.857 1640.15,600.857 
  "></polyline>
<polyline clip-path="url(#clip392)" style="stroke:#000000; stroke-width:2; stroke-opacity:0.1; fill:none" points="
  212.976,478.677 1640.15,478.677 
  "></polyline>
<polyline clip-path="url(#clip392)" style="stroke:#000000; stroke-width:2; stroke-opacity:0.1; fill:none" points="
  212.976,356.498 1640.15,356.498 
  "></polyline>
<polyline clip-path="url(#clip392)" style="stroke:#000000; stroke-width:2; stroke-opacity:0.1; fill:none" points="
  212.976,234.318 1640.15,234.318 
  "></polyline>
<polyline clip-path="url(#clip390)" style="stroke:#000000; stroke-width:4; stroke-opacity:1; fill:none" points="
  212.976,1395.02 1640.15,1395.02 
  "></polyline>
<polyline clip-path="url(#clip390)" style="stroke:#000000; stroke-width:4; stroke-opacity:1; fill:none" points="
  212.976,1395.02 212.976,173.228 
  "></polyline>
<polyline clip-path="url(#clip390)" style="stroke:#000000; stroke-width:4; stroke-opacity:1; fill:none" points="
  284.335,1395.02 284.335,1380.36 
  "></polyline>
<polyline clip-path="url(#clip390)" style="stroke:#000000; stroke-width:4; stroke-opacity:1; fill:none" points="
  427.052,1395.02 427.052,1380.36 
  "></polyline>
<polyline clip-path="url(#clip390)" style="stroke:#000000; stroke-width:4; stroke-opacity:1; fill:none" points="
  569.769,1395.02 569.769,1380.36 
  "></polyline>
<polyline clip-path="url(#clip390)" style="stroke:#000000; stroke-width:4; stroke-opacity:1; fill:none" points="
  712.486,1395.02 712.486,1380.36 
  "></polyline>
<polyline clip-path="url(#clip390)" style="stroke:#000000; stroke-width:4; stroke-opacity:1; fill:none" points="
  855.203,1395.02 855.203,1380.36 
  "></polyline>
<polyline clip-path="url(#clip390)" style="stroke:#000000; stroke-width:4; stroke-opacity:1; fill:none" points="
  997.92,1395.02 997.92,1380.36 
  "></polyline>
<polyline clip-path="url(#clip390)" style="stroke:#000000; stroke-width:4; stroke-opacity:1; fill:none" points="
  1140.64,1395.02 1140.64,1380.36 
  "></polyline>
<polyline clip-path="url(#clip390)" style="stroke:#000000; stroke-width:4; stroke-opacity:1; fill:none" points="
  1283.35,1395.02 1283.35,1380.36 
  "></polyline>
<polyline clip-path="url(#clip390)" style="stroke:#000000; stroke-width:4; stroke-opacity:1; fill:none" points="
  1426.07,1395.02 1426.07,1380.36 
  "></polyline>
<polyline clip-path="url(#clip390)" style="stroke:#000000; stroke-width:4; stroke-opacity:1; fill:none" points="
  1568.79,1395.02 1568.79,1380.36 
  "></polyline>
<polyline clip-path="url(#clip390)" style="stroke:#000000; stroke-width:4; stroke-opacity:1; fill:none" points="
  212.976,1333.93 230.102,1333.93 
  "></polyline>
<polyline clip-path="url(#clip390)" style="stroke:#000000; stroke-width:4; stroke-opacity:1; fill:none" points="
  212.976,1211.75 230.102,1211.75 
  "></polyline>
<polyline clip-path="url(#clip390)" style="stroke:#000000; stroke-width:4; stroke-opacity:1; fill:none" points="
  212.976,1089.57 230.102,1089.57 
  "></polyline>
<polyline clip-path="url(#clip390)" style="stroke:#000000; stroke-width:4; stroke-opacity:1; fill:none" points="
  212.976,967.395 230.102,967.395 
  "></polyline>
<polyline clip-path="url(#clip390)" style="stroke:#000000; stroke-width:4; stroke-opacity:1; fill:none" points="
  212.976,845.216 230.102,845.216 
  "></polyline>
<polyline clip-path="url(#clip390)" style="stroke:#000000; stroke-width:4; stroke-opacity:1; fill:none" points="
  212.976,723.036 230.102,723.036 
  "></polyline>
<polyline clip-path="url(#clip390)" style="stroke:#000000; stroke-width:4; stroke-opacity:1; fill:none" points="
  212.976,600.857 230.102,600.857 
  "></polyline>
<polyline clip-path="url(#clip390)" style="stroke:#000000; stroke-width:4; stroke-opacity:1; fill:none" points="
  212.976,478.677 230.102,478.677 
  "></polyline>
<polyline clip-path="url(#clip390)" style="stroke:#000000; stroke-width:4; stroke-opacity:1; fill:none" points="
  212.976,356.498 230.102,356.498 
  "></polyline>
<polyline clip-path="url(#clip390)" style="stroke:#000000; stroke-width:4; stroke-opacity:1; fill:none" points="
  212.976,234.318 230.102,234.318 
  "></polyline>
<path clip-path="url(#clip390)" d="M 0 0 M274.717 1444.56 L282.356 1444.56 L282.356 1418.19 L274.046 1419.86 L274.046 1415.6 L282.309 1413.94 L286.985 1413.94 L286.985 1444.56 L294.624 1444.56 L294.624 1448.5 L274.717 1448.5 L274.717 1444.56 Z" fill="#000000" fill-rule="evenodd" fill-opacity="1"></path><path clip-path="url(#clip390)" d="M 0 0 M421.705 1444.56 L438.024 1444.56 L438.024 1448.5 L416.08 1448.5 L416.08 1444.56 Q418.742 1441.81 423.325 1437.18 Q427.932 1432.52 429.112 1431.18 Q431.357 1428.66 432.237 1426.92 Q433.14 1425.16 433.14 1423.47 Q433.14 1420.72 431.195 1418.98 Q429.274 1417.25 426.172 1417.25 Q423.973 1417.25 421.519 1418.01 Q419.089 1418.77 416.311 1420.32 L416.311 1415.6 Q419.135 1414.47 421.589 1413.89 Q424.043 1413.31 426.08 1413.31 Q431.45 1413.31 434.644 1416 Q437.839 1418.68 437.839 1423.17 Q437.839 1425.3 437.029 1427.22 Q436.242 1429.12 434.135 1431.71 Q433.556 1432.38 430.455 1435.6 Q427.353 1438.8 421.705 1444.56 Z" fill="#000000" fill-rule="evenodd" fill-opacity="1"></path><path clip-path="url(#clip390)" d="M 0 0 M574.017 1429.86 Q577.373 1430.58 579.248 1432.85 Q581.146 1435.12 581.146 1438.45 Q581.146 1443.57 577.628 1446.37 Q574.109 1449.17 567.628 1449.17 Q565.452 1449.17 563.137 1448.73 Q560.845 1448.31 558.392 1447.45 L558.392 1442.94 Q560.336 1444.07 562.651 1444.65 Q564.966 1445.23 567.489 1445.23 Q571.887 1445.23 574.179 1443.5 Q576.493 1441.76 576.493 1438.45 Q576.493 1435.39 574.341 1433.68 Q572.211 1431.94 568.392 1431.94 L564.364 1431.94 L564.364 1428.1 L568.577 1428.1 Q572.026 1428.1 573.855 1426.74 Q575.683 1425.35 575.683 1422.76 Q575.683 1420.09 573.785 1418.68 Q571.91 1417.25 568.392 1417.25 Q566.47 1417.25 564.271 1417.66 Q562.072 1418.08 559.433 1418.96 L559.433 1414.79 Q562.095 1414.05 564.41 1413.68 Q566.748 1413.31 568.808 1413.31 Q574.132 1413.31 577.234 1415.74 Q580.336 1418.15 580.336 1422.27 Q580.336 1425.14 578.692 1427.13 Q577.049 1429.1 574.017 1429.86 Z" fill="#000000" fill-rule="evenodd" fill-opacity="1"></path><path clip-path="url(#clip390)" d="M 0 0 M715.495 1418.01 L703.69 1436.46 L715.495 1436.46 L715.495 1418.01 M714.268 1413.94 L720.148 1413.94 L720.148 1436.46 L725.078 1436.46 L725.078 1440.35 L720.148 1440.35 L720.148 1448.5 L715.495 1448.5 L715.495 1440.35 L699.893 1440.35 L699.893 1435.83 L714.268 1413.94 Z" fill="#000000" fill-rule="evenodd" fill-opacity="1"></path><path clip-path="url(#clip390)" d="M 0 0 M845.481 1413.94 L863.837 1413.94 L863.837 1417.87 L849.763 1417.87 L849.763 1426.34 Q850.782 1426 851.8 1425.83 Q852.819 1425.65 853.837 1425.65 Q859.624 1425.65 863.004 1428.82 Q866.383 1431.99 866.383 1437.41 Q866.383 1442.99 862.911 1446.09 Q859.439 1449.17 853.12 1449.17 Q850.944 1449.17 848.675 1448.8 Q846.43 1448.43 844.022 1447.69 L844.022 1442.99 Q846.106 1444.12 848.328 1444.68 Q850.55 1445.23 853.027 1445.23 Q857.032 1445.23 859.37 1443.13 Q861.707 1441.02 861.707 1437.41 Q861.707 1433.8 859.37 1431.69 Q857.032 1429.58 853.027 1429.58 Q851.152 1429.58 849.277 1430 Q847.425 1430.42 845.481 1431.3 L845.481 1413.94 Z" fill="#000000" fill-rule="evenodd" fill-opacity="1"></path><path clip-path="url(#clip390)" d="M 0 0 M998.325 1429.35 Q995.177 1429.35 993.325 1431.5 Q991.496 1433.66 991.496 1437.41 Q991.496 1441.13 993.325 1443.31 Q995.177 1445.46 998.325 1445.46 Q1001.47 1445.46 1003.3 1443.31 Q1005.15 1441.13 1005.15 1437.41 Q1005.15 1433.66 1003.3 1431.5 Q1001.47 1429.35 998.325 1429.35 M1007.61 1414.7 L1007.61 1418.96 Q1005.85 1418.13 1004.04 1417.69 Q1002.26 1417.25 1000.5 1417.25 Q995.871 1417.25 993.418 1420.37 Q990.987 1423.5 990.64 1429.82 Q992.006 1427.8 994.066 1426.74 Q996.126 1425.65 998.603 1425.65 Q1003.81 1425.65 1006.82 1428.82 Q1009.85 1431.97 1009.85 1437.41 Q1009.85 1442.73 1006.7 1445.95 Q1003.56 1449.17 998.325 1449.17 Q992.33 1449.17 989.158 1444.58 Q985.987 1439.98 985.987 1431.25 Q985.987 1423.06 989.876 1418.19 Q993.765 1413.31 1000.32 1413.31 Q1002.07 1413.31 1003.86 1413.66 Q1005.66 1414.01 1007.61 1414.7 Z" fill="#000000" fill-rule="evenodd" fill-opacity="1"></path><path clip-path="url(#clip390)" d="M 0 0 M1129.53 1413.94 L1151.75 1413.94 L1151.75 1415.93 L1139.2 1448.5 L1134.32 1448.5 L1146.12 1417.87 L1129.53 1417.87 L1129.53 1413.94 Z" fill="#000000" fill-rule="evenodd" fill-opacity="1"></path><path clip-path="url(#clip390)" d="M 0 0 M1283.35 1432.08 Q1280.02 1432.08 1278.1 1433.87 Q1276.2 1435.65 1276.2 1438.77 Q1276.2 1441.9 1278.1 1443.68 Q1280.02 1445.46 1283.35 1445.46 Q1286.69 1445.46 1288.61 1443.68 Q1290.53 1441.88 1290.53 1438.77 Q1290.53 1435.65 1288.61 1433.87 Q1286.71 1432.08 1283.35 1432.08 M1278.68 1430.09 Q1275.67 1429.35 1273.98 1427.29 Q1272.31 1425.23 1272.31 1422.27 Q1272.31 1418.13 1275.25 1415.72 Q1278.22 1413.31 1283.35 1413.31 Q1288.52 1413.31 1291.46 1415.72 Q1294.4 1418.13 1294.4 1422.27 Q1294.4 1425.23 1292.71 1427.29 Q1291.04 1429.35 1288.05 1430.09 Q1291.43 1430.88 1293.31 1433.17 Q1295.21 1435.46 1295.21 1438.77 Q1295.21 1443.8 1292.13 1446.48 Q1289.07 1449.17 1283.35 1449.17 Q1277.64 1449.17 1274.56 1446.48 Q1271.5 1443.8 1271.5 1438.77 Q1271.5 1435.46 1273.4 1433.17 Q1275.3 1430.88 1278.68 1430.09 M1276.97 1422.71 Q1276.97 1425.39 1278.63 1426.9 Q1280.32 1428.4 1283.35 1428.4 Q1286.36 1428.4 1288.05 1426.9 Q1289.77 1425.39 1289.77 1422.71 Q1289.77 1420.02 1288.05 1418.52 Q1286.36 1417.01 1283.35 1417.01 Q1280.32 1417.01 1278.63 1418.52 Q1276.97 1420.02 1276.97 1422.71 Z" fill="#000000" fill-rule="evenodd" fill-opacity="1"></path><path clip-path="url(#clip390)" d="M 0 0 M1416.37 1447.78 L1416.37 1443.52 Q1418.13 1444.35 1419.94 1444.79 Q1421.74 1445.23 1423.48 1445.23 Q1428.11 1445.23 1430.54 1442.13 Q1432.99 1439 1433.34 1432.66 Q1432 1434.65 1429.94 1435.72 Q1427.88 1436.78 1425.38 1436.78 Q1420.19 1436.78 1417.16 1433.66 Q1414.15 1430.51 1414.15 1425.07 Q1414.15 1419.75 1417.3 1416.53 Q1420.45 1413.31 1425.68 1413.31 Q1431.67 1413.31 1434.82 1417.92 Q1437.99 1422.5 1437.99 1431.25 Q1437.99 1439.42 1434.1 1444.31 Q1430.24 1449.17 1423.69 1449.17 Q1421.93 1449.17 1420.12 1448.82 Q1418.32 1448.47 1416.37 1447.78 M1425.68 1433.13 Q1428.83 1433.13 1430.65 1430.97 Q1432.51 1428.82 1432.51 1425.07 Q1432.51 1421.34 1430.65 1419.19 Q1428.83 1417.01 1425.68 1417.01 Q1422.53 1417.01 1420.68 1419.19 Q1418.85 1421.34 1418.85 1425.07 Q1418.85 1428.82 1420.68 1430.97 Q1422.53 1433.13 1425.68 1433.13 Z" fill="#000000" fill-rule="evenodd" fill-opacity="1"></path><path clip-path="url(#clip390)" d="M 0 0 M1545.66 1444.56 L1553.3 1444.56 L1553.3 1418.19 L1544.99 1419.86 L1544.99 1415.6 L1553.26 1413.94 L1557.93 1413.94 L1557.93 1444.56 L1565.57 1444.56 L1565.57 1448.5 L1545.66 1448.5 L1545.66 1444.56 Z" fill="#000000" fill-rule="evenodd" fill-opacity="1"></path><path clip-path="url(#clip390)" d="M 0 0 M1580.64 1417.01 Q1577.03 1417.01 1575.2 1420.58 Q1573.39 1424.12 1573.39 1431.25 Q1573.39 1438.36 1575.2 1441.92 Q1577.03 1445.46 1580.64 1445.46 Q1584.27 1445.46 1586.08 1441.92 Q1587.91 1438.36 1587.91 1431.25 Q1587.91 1424.12 1586.08 1420.58 Q1584.27 1417.01 1580.64 1417.01 M1580.64 1413.31 Q1586.45 1413.31 1589.51 1417.92 Q1592.58 1422.5 1592.58 1431.25 Q1592.58 1439.98 1589.51 1444.58 Q1586.45 1449.17 1580.64 1449.17 Q1574.83 1449.17 1571.75 1444.58 Q1568.7 1439.98 1568.7 1431.25 Q1568.7 1422.5 1571.75 1417.92 Q1574.83 1413.31 1580.64 1413.31 Z" fill="#000000" fill-rule="evenodd" fill-opacity="1"></path><path clip-path="url(#clip390)" d="M 0 0 M169.069 1347.28 L176.708 1347.28 L176.708 1320.91 L168.398 1322.58 L168.398 1318.32 L176.662 1316.65 L181.338 1316.65 L181.338 1347.28 L188.976 1347.28 L188.976 1351.21 L169.069 1351.21 L169.069 1347.28 Z" fill="#000000" fill-rule="evenodd" fill-opacity="1"></path><path clip-path="url(#clip390)" d="M 0 0 M172.657 1225.1 L188.976 1225.1 L188.976 1229.03 L167.032 1229.03 L167.032 1225.1 Q169.694 1222.34 174.277 1217.71 Q178.884 1213.06 180.064 1211.72 Q182.31 1209.2 183.189 1207.46 Q184.092 1205.7 184.092 1204.01 Q184.092 1201.26 182.148 1199.52 Q180.226 1197.78 177.125 1197.78 Q174.926 1197.78 172.472 1198.55 Q170.041 1199.31 167.264 1200.86 L167.264 1196.14 Q170.088 1195.01 172.541 1194.43 Q174.995 1193.85 177.032 1193.85 Q182.402 1193.85 185.597 1196.53 Q188.791 1199.22 188.791 1203.71 Q188.791 1205.84 187.981 1207.76 Q187.194 1209.66 185.088 1212.25 Q184.509 1212.92 181.407 1216.14 Q178.305 1219.34 172.657 1225.1 Z" fill="#000000" fill-rule="evenodd" fill-opacity="1"></path><path clip-path="url(#clip390)" d="M 0 0 M181.847 1088.22 Q185.203 1088.94 187.078 1091.21 Q188.976 1093.48 188.976 1096.81 Q188.976 1101.92 185.458 1104.73 Q181.939 1107.53 175.458 1107.53 Q173.282 1107.53 170.967 1107.09 Q168.676 1106.67 166.222 1105.81 L166.222 1101.3 Q168.166 1102.43 170.481 1103.01 Q172.796 1103.59 175.319 1103.59 Q179.717 1103.59 182.009 1101.85 Q184.324 1100.12 184.324 1096.81 Q184.324 1093.75 182.171 1092.04 Q180.041 1090.3 176.222 1090.3 L172.194 1090.3 L172.194 1086.46 L176.407 1086.46 Q179.856 1086.46 181.685 1085.1 Q183.513 1083.71 183.513 1081.11 Q183.513 1078.45 181.615 1077.04 Q179.74 1075.6 176.222 1075.6 Q174.301 1075.6 172.101 1076.02 Q169.902 1076.44 167.264 1077.32 L167.264 1073.15 Q169.926 1072.41 172.24 1072.04 Q174.578 1071.67 176.638 1071.67 Q181.963 1071.67 185.064 1074.1 Q188.166 1076.51 188.166 1080.63 Q188.166 1083.5 186.523 1085.49 Q184.879 1087.46 181.847 1088.22 Z" fill="#000000" fill-rule="evenodd" fill-opacity="1"></path><path clip-path="url(#clip390)" d="M 0 0 M179.393 954.189 L167.588 972.638 L179.393 972.638 L179.393 954.189 M178.166 950.115 L184.046 950.115 L184.046 972.638 L188.976 972.638 L188.976 976.527 L184.046 976.527 L184.046 984.675 L179.393 984.675 L179.393 976.527 L163.791 976.527 L163.791 972.013 L178.166 950.115 Z" fill="#000000" fill-rule="evenodd" fill-opacity="1"></path><path clip-path="url(#clip390)" d="M 0 0 M168.074 827.936 L186.43 827.936 L186.43 831.871 L172.356 831.871 L172.356 840.343 Q173.375 839.996 174.393 839.834 Q175.412 839.649 176.43 839.649 Q182.217 839.649 185.597 842.82 Q188.976 845.991 188.976 851.408 Q188.976 856.987 185.504 860.088 Q182.032 863.167 175.713 863.167 Q173.537 863.167 171.268 862.797 Q169.023 862.426 166.615 861.686 L166.615 856.987 Q168.699 858.121 170.921 858.676 Q173.143 859.232 175.62 859.232 Q179.625 859.232 181.963 857.125 Q184.3 855.019 184.3 851.408 Q184.3 847.797 181.963 845.69 Q179.625 843.584 175.62 843.584 Q173.745 843.584 171.87 844 Q170.018 844.417 168.074 845.297 L168.074 827.936 Z" fill="#000000" fill-rule="evenodd" fill-opacity="1"></path><path clip-path="url(#clip390)" d="M 0 0 M177.449 721.173 Q174.301 721.173 172.449 723.326 Q170.62 725.478 170.62 729.228 Q170.62 732.955 172.449 735.131 Q174.301 737.284 177.449 737.284 Q180.597 737.284 182.425 735.131 Q184.277 732.955 184.277 729.228 Q184.277 725.478 182.425 723.326 Q180.597 721.173 177.449 721.173 M186.731 706.52 L186.731 710.779 Q184.972 709.946 183.166 709.506 Q181.384 709.066 179.625 709.066 Q174.995 709.066 172.541 712.191 Q170.111 715.316 169.764 721.636 Q171.129 719.622 173.189 718.557 Q175.25 717.469 177.726 717.469 Q182.935 717.469 185.944 720.64 Q188.976 723.789 188.976 729.228 Q188.976 734.552 185.828 737.77 Q182.68 740.988 177.449 740.988 Q171.453 740.988 168.282 736.404 Q165.111 731.798 165.111 723.071 Q165.111 714.877 169 710.015 Q172.889 705.131 179.439 705.131 Q181.199 705.131 182.981 705.478 Q184.787 705.826 186.731 706.52 Z" fill="#000000" fill-rule="evenodd" fill-opacity="1"></path><path clip-path="url(#clip390)" d="M 0 0 M166.754 583.577 L188.976 583.577 L188.976 585.567 L176.43 618.137 L171.546 618.137 L183.351 587.512 L166.754 587.512 L166.754 583.577 Z" fill="#000000" fill-rule="evenodd" fill-opacity="1"></path><path clip-path="url(#clip390)" d="M 0 0 M177.125 479.545 Q173.791 479.545 171.87 481.328 Q169.972 483.11 169.972 486.235 Q169.972 489.36 171.87 491.142 Q173.791 492.925 177.125 492.925 Q180.458 492.925 182.379 491.142 Q184.3 489.337 184.3 486.235 Q184.3 483.11 182.379 481.328 Q180.481 479.545 177.125 479.545 M172.449 477.554 Q169.439 476.814 167.75 474.754 Q166.083 472.693 166.083 469.73 Q166.083 465.587 169.023 463.18 Q171.986 460.772 177.125 460.772 Q182.287 460.772 185.226 463.18 Q188.166 465.587 188.166 469.73 Q188.166 472.693 186.476 474.754 Q184.81 476.814 181.824 477.554 Q185.203 478.342 187.078 480.633 Q188.976 482.925 188.976 486.235 Q188.976 491.258 185.898 493.943 Q182.842 496.628 177.125 496.628 Q171.407 496.628 168.328 493.943 Q165.273 491.258 165.273 486.235 Q165.273 482.925 167.171 480.633 Q169.069 478.342 172.449 477.554 M170.736 470.17 Q170.736 472.855 172.402 474.36 Q174.092 475.865 177.125 475.865 Q180.134 475.865 181.824 474.36 Q183.537 472.855 183.537 470.17 Q183.537 467.485 181.824 465.98 Q180.134 464.476 177.125 464.476 Q174.092 464.476 172.402 465.98 Q170.736 467.485 170.736 470.17 Z" fill="#000000" fill-rule="evenodd" fill-opacity="1"></path><path clip-path="url(#clip390)" d="M 0 0 M167.356 373.06 L167.356 368.801 Q169.115 369.634 170.921 370.074 Q172.726 370.514 174.463 370.514 Q179.092 370.514 181.523 367.412 Q183.976 364.287 184.324 357.944 Q182.981 359.935 180.921 361 Q178.861 362.065 176.361 362.065 Q171.176 362.065 168.143 358.94 Q165.134 355.792 165.134 350.352 Q165.134 345.028 168.282 341.81 Q171.43 338.593 176.662 338.593 Q182.657 338.593 185.805 343.199 Q188.976 347.782 188.976 356.532 Q188.976 364.704 185.088 369.588 Q181.222 374.449 174.671 374.449 Q172.912 374.449 171.106 374.102 Q169.301 373.754 167.356 373.06 M176.662 358.407 Q179.81 358.407 181.638 356.255 Q183.49 354.102 183.49 350.352 Q183.49 346.625 181.638 344.472 Q179.81 342.296 176.662 342.296 Q173.513 342.296 171.662 344.472 Q169.833 346.625 169.833 350.352 Q169.833 354.102 171.662 356.255 Q173.513 358.407 176.662 358.407 Z" fill="#000000" fill-rule="evenodd" fill-opacity="1"></path><path clip-path="url(#clip390)" d="M 0 0 M142.055 247.663 L149.694 247.663 L149.694 221.297 L141.384 222.964 L141.384 218.705 L149.648 217.038 L154.324 217.038 L154.324 247.663 L161.963 247.663 L161.963 251.598 L142.055 251.598 L142.055 247.663 Z" fill="#000000" fill-rule="evenodd" fill-opacity="1"></path><path clip-path="url(#clip390)" d="M 0 0 M177.032 220.117 Q173.421 220.117 171.592 223.682 Q169.787 227.223 169.787 234.353 Q169.787 241.459 171.592 245.024 Q173.421 248.566 177.032 248.566 Q180.666 248.566 182.472 245.024 Q184.3 241.459 184.3 234.353 Q184.3 227.223 182.472 223.682 Q180.666 220.117 177.032 220.117 M177.032 216.413 Q182.842 216.413 185.898 221.02 Q188.976 225.603 188.976 234.353 Q188.976 243.08 185.898 247.686 Q182.842 252.269 177.032 252.269 Q171.222 252.269 168.143 247.686 Q165.088 243.08 165.088 234.353 Q165.088 225.603 168.143 221.02 Q171.222 216.413 177.032 216.413 Z" fill="#000000" fill-rule="evenodd" fill-opacity="1"></path><path clip-path="url(#clip390)" d="M 0 0 M510.736 12.096 L522.929 12.096 L538.363 53.2532 L553.878 12.096 L566.071 12.096 L566.071 72.576 L558.091 72.576 L558.091 19.4686 L542.495 60.9499 L534.272 60.9499 L518.676 19.4686 L518.676 72.576 L510.736 72.576 L510.736 12.096 Z" fill="#000000" fill-rule="evenodd" fill-opacity="1"></path><path clip-path="url(#clip390)" d="M 0 0 M573.12 54.671 L573.12 27.2059 L580.574 27.2059 L580.574 54.3874 Q580.574 60.8284 583.085 64.0691 Q585.597 67.2693 590.62 67.2693 Q596.656 67.2693 600.14 63.421 Q603.664 59.5726 603.664 52.9291 L603.664 27.2059 L611.117 27.2059 L611.117 72.576 L603.664 72.576 L603.664 65.6084 Q600.95 69.7404 597.344 71.7658 Q593.78 73.7508 589.04 73.7508 Q581.222 73.7508 577.171 68.8897 Q573.12 64.0286 573.12 54.671 M591.876 26.1121 L591.876 26.1121 Z" fill="#000000" fill-rule="evenodd" fill-opacity="1"></path><path clip-path="url(#clip390)" d="M 0 0 M618.936 9.54393 L626.389 9.54393 L626.389 72.576 L618.936 72.576 L618.936 9.54393 Z" fill="#000000" fill-rule="evenodd" fill-opacity="1"></path><path clip-path="url(#clip390)" d="M 0 0 M641.58 14.324 L641.58 27.2059 L656.933 27.2059 L656.933 32.9987 L641.58 32.9987 L641.58 57.6282 Q641.58 63.1779 643.079 64.7578 Q644.618 66.3376 649.277 66.3376 L656.933 66.3376 L656.933 72.576 L649.277 72.576 Q640.649 72.576 637.367 69.3758 Q634.086 66.1351 634.086 57.6282 L634.086 32.9987 L628.617 32.9987 L628.617 27.2059 L634.086 27.2059 L634.086 14.324 L641.58 14.324 Z" fill="#000000" fill-rule="evenodd" fill-opacity="1"></path><path clip-path="url(#clip390)" d="M 0 0 M664.751 27.2059 L672.205 27.2059 L672.205 72.576 L664.751 72.576 L664.751 27.2059 M664.751 9.54393 L672.205 9.54393 L672.205 18.9825 L664.751 18.9825 L664.751 9.54393 Z" fill="#000000" fill-rule="evenodd" fill-opacity="1"></path><path clip-path="url(#clip390)" d="M 0 0 M726.933 20.1573 L715.833 50.2555 L738.073 50.2555 L726.933 20.1573 M722.315 12.096 L731.591 12.096 L754.641 72.576 L746.134 72.576 L740.625 57.061 L713.362 57.061 L707.853 72.576 L699.225 72.576 L722.315 12.096 Z" fill="#000000" fill-rule="evenodd" fill-opacity="1"></path><path clip-path="url(#clip390)" d="M 0 0 M792.314 49.3643 Q792.314 41.2625 788.952 36.8065 Q785.63 32.3505 779.595 32.3505 Q773.599 32.3505 770.237 36.8065 Q766.915 41.2625 766.915 49.3643 Q766.915 57.4256 770.237 61.8816 Q773.599 66.3376 779.595 66.3376 Q785.63 66.3376 788.952 61.8816 Q792.314 57.4256 792.314 49.3643 M799.768 66.9452 Q799.768 78.5308 794.623 84.1616 Q789.479 89.8329 778.865 89.8329 Q774.936 89.8329 771.452 89.2252 Q767.968 88.6581 764.687 87.4428 L764.687 80.1917 Q767.968 81.9741 771.169 82.8248 Q774.369 83.6755 777.691 83.6755 Q785.023 83.6755 788.669 79.8271 Q792.314 76.0193 792.314 68.282 L792.314 64.5957 Q790.005 68.6061 786.4 70.5911 Q782.795 72.576 777.772 72.576 Q769.427 72.576 764.323 66.2161 Q759.219 59.8562 759.219 49.3643 Q759.219 38.832 764.323 32.472 Q769.427 26.1121 777.772 26.1121 Q782.795 26.1121 786.4 28.0971 Q790.005 30.082 792.314 34.0924 L792.314 27.2059 L799.768 27.2059 L799.768 66.9452 Z" fill="#000000" fill-rule="evenodd" fill-opacity="1"></path><path clip-path="url(#clip390)" d="M 0 0 M846.394 48.0275 L846.394 51.6733 L812.123 51.6733 Q812.609 59.3701 816.741 63.421 Q820.914 67.4314 828.327 67.4314 Q832.621 67.4314 836.631 66.3781 Q840.682 65.3249 844.652 63.2184 L844.652 70.267 Q840.642 71.9684 836.429 72.8596 Q832.216 73.7508 827.881 73.7508 Q817.025 73.7508 810.665 67.4314 Q804.346 61.1119 804.346 50.3365 Q804.346 39.1965 810.341 32.6746 Q816.377 26.1121 826.585 26.1121 Q835.74 26.1121 841.047 32.0264 Q846.394 37.9003 846.394 48.0275 M838.94 45.84 Q838.859 39.7232 835.497 36.0774 Q832.175 32.4315 826.666 32.4315 Q820.428 32.4315 816.66 35.9558 Q812.934 39.4801 812.366 45.8805 L838.94 45.84 Z" fill="#000000" fill-rule="evenodd" fill-opacity="1"></path><path clip-path="url(#clip390)" d="M 0 0 M891.926 45.1919 L891.926 72.576 L884.472 72.576 L884.472 45.4349 Q884.472 38.994 881.961 35.7938 Q879.449 32.5936 874.426 32.5936 Q868.39 32.5936 864.907 36.4419 Q861.423 40.2903 861.423 46.9338 L861.423 72.576 L853.929 72.576 L853.929 27.2059 L861.423 27.2059 L861.423 34.2544 Q864.096 30.163 867.702 28.1376 Q871.348 26.1121 876.087 26.1121 Q883.905 26.1121 887.916 30.9732 Q891.926 35.7938 891.926 45.1919 Z" fill="#000000" fill-rule="evenodd" fill-opacity="1"></path><path clip-path="url(#clip390)" d="M 0 0 M907.117 14.324 L907.117 27.2059 L922.47 27.2059 L922.47 32.9987 L907.117 32.9987 L907.117 57.6282 Q907.117 63.1779 908.616 64.7578 Q910.155 66.3376 914.814 66.3376 L922.47 66.3376 L922.47 72.576 L914.814 72.576 Q906.185 72.576 902.904 69.3758 Q899.623 66.1351 899.623 57.6282 L899.623 32.9987 L894.154 32.9987 L894.154 27.2059 L899.623 27.2059 L899.623 14.324 L907.117 14.324 Z" fill="#000000" fill-rule="evenodd" fill-opacity="1"></path><path clip-path="url(#clip390)" d="M 0 0 M998.222 63.9476 L998.222 47.7034 L984.854 47.7034 L984.854 40.9789 L1006.32 40.9789 L1006.32 66.9452 Q1001.58 70.3075 995.872 72.0494 Q990.161 73.7508 983.679 73.7508 Q969.501 73.7508 961.48 65.4869 Q953.5 57.1826 953.5 42.3968 Q953.5 27.5705 961.48 19.3066 Q969.501 11.0023 983.679 11.0023 Q989.593 11.0023 994.9 12.4606 Q1000.25 13.9189 1004.74 16.7545 L1004.74 25.464 Q1000.21 21.6156 995.103 19.6712 Q989.999 17.7268 984.368 17.7268 Q973.268 17.7268 967.678 23.9246 Q962.128 30.1225 962.128 42.3968 Q962.128 54.6305 967.678 60.8284 Q973.268 67.0263 984.368 67.0263 Q988.702 67.0263 992.105 66.2971 Q995.508 65.5274 998.222 63.9476 Z" fill="#000000" fill-rule="evenodd" fill-opacity="1"></path><path clip-path="url(#clip390)" d="M 0 0 M1040.43 34.1734 Q1039.18 33.4443 1037.68 33.1202 Q1036.22 32.7556 1034.44 32.7556 Q1028.12 32.7556 1024.71 36.8875 Q1021.35 40.9789 1021.35 48.6757 L1021.35 72.576 L1013.86 72.576 L1013.86 27.2059 L1021.35 27.2059 L1021.35 34.2544 Q1023.7 30.1225 1027.47 28.1376 Q1031.24 26.1121 1036.62 26.1121 Q1037.39 26.1121 1038.33 26.2337 Q1039.26 26.3147 1040.39 26.5172 L1040.43 34.1734 Z" fill="#000000" fill-rule="evenodd" fill-opacity="1"></path><path clip-path="url(#clip390)" d="M 0 0 M1048.25 27.2059 L1055.7 27.2059 L1055.7 72.576 L1048.25 72.576 L1048.25 27.2059 M1048.25 9.54393 L1055.7 9.54393 L1055.7 18.9825 L1048.25 18.9825 L1048.25 9.54393 Z" fill="#000000" fill-rule="evenodd" fill-opacity="1"></path><path clip-path="url(#clip390)" d="M 0 0 M1093.38 34.0924 L1093.38 9.54393 L1100.83 9.54393 L1100.83 72.576 L1093.38 72.576 L1093.38 65.7705 Q1091.03 69.8214 1087.42 71.8063 Q1083.86 73.7508 1078.83 73.7508 Q1070.61 73.7508 1065.43 67.1883 Q1060.28 60.6258 1060.28 49.9314 Q1060.28 39.2371 1065.43 32.6746 Q1070.61 26.1121 1078.83 26.1121 Q1083.86 26.1121 1087.42 28.0971 Q1091.03 30.0415 1093.38 34.0924 M1067.98 49.9314 Q1067.98 58.1548 1071.34 62.8538 Q1074.74 67.5124 1080.66 67.5124 Q1086.57 67.5124 1089.97 62.8538 Q1093.38 58.1548 1093.38 49.9314 Q1093.38 41.7081 1089.97 37.0496 Q1086.57 32.3505 1080.66 32.3505 Q1074.74 32.3505 1071.34 37.0496 Q1067.98 41.7081 1067.98 49.9314 Z" fill="#000000" fill-rule="evenodd" fill-opacity="1"></path><path clip-path="url(#clip390)" d="M 0 0 M1129.96 12.096 L1138.22 12.096 L1150.94 63.2184 L1163.62 12.096 L1172.82 12.096 L1185.54 63.2184 L1198.22 12.096 L1206.52 12.096 L1191.33 72.576 L1181.04 72.576 L1168.28 20.0763 L1155.4 72.576 L1145.11 72.576 L1129.96 12.096 Z" fill="#000000" fill-rule="evenodd" fill-opacity="1"></path><path clip-path="url(#clip390)" d="M 0 0 M1227.06 32.4315 Q1221.06 32.4315 1217.58 37.1306 Q1214.09 41.7891 1214.09 49.9314 Q1214.09 58.0738 1217.54 62.7728 Q1221.02 67.4314 1227.06 67.4314 Q1233.01 67.4314 1236.5 62.7323 Q1239.98 58.0333 1239.98 49.9314 Q1239.98 41.8701 1236.5 37.1711 Q1233.01 32.4315 1227.06 32.4315 M1227.06 26.1121 Q1236.78 26.1121 1242.33 32.4315 Q1247.88 38.7509 1247.88 49.9314 Q1247.88 61.0714 1242.33 67.4314 Q1236.78 73.7508 1227.06 73.7508 Q1217.29 73.7508 1211.75 67.4314 Q1206.24 61.0714 1206.24 49.9314 Q1206.24 38.7509 1211.75 32.4315 Q1217.29 26.1121 1227.06 26.1121 Z" fill="#000000" fill-rule="evenodd" fill-opacity="1"></path><path clip-path="url(#clip390)" d="M 0 0 M1281.99 34.1734 Q1280.73 33.4443 1279.23 33.1202 Q1277.77 32.7556 1275.99 32.7556 Q1269.67 32.7556 1266.27 36.8875 Q1262.91 40.9789 1262.91 48.6757 L1262.91 72.576 L1255.41 72.576 L1255.41 27.2059 L1262.91 27.2059 L1262.91 34.2544 Q1265.26 30.1225 1269.02 28.1376 Q1272.79 26.1121 1278.18 26.1121 Q1278.95 26.1121 1279.88 26.2337 Q1280.81 26.3147 1281.95 26.5172 L1281.99 34.1734 Z" fill="#000000" fill-rule="evenodd" fill-opacity="1"></path><path clip-path="url(#clip390)" d="M 0 0 M1289.81 9.54393 L1297.26 9.54393 L1297.26 72.576 L1289.81 72.576 L1289.81 9.54393 Z" fill="#000000" fill-rule="evenodd" fill-opacity="1"></path><path clip-path="url(#clip390)" d="M 0 0 M1334.93 34.0924 L1334.93 9.54393 L1342.39 9.54393 L1342.39 72.576 L1334.93 72.576 L1334.93 65.7705 Q1332.58 69.8214 1328.98 71.8063 Q1325.41 73.7508 1320.39 73.7508 Q1312.17 73.7508 1306.98 67.1883 Q1301.84 60.6258 1301.84 49.9314 Q1301.84 39.2371 1306.98 32.6746 Q1312.17 26.1121 1320.39 26.1121 Q1325.41 26.1121 1328.98 28.0971 Q1332.58 30.0415 1334.93 34.0924 M1309.53 49.9314 Q1309.53 58.1548 1312.9 62.8538 Q1316.3 67.5124 1322.21 67.5124 Q1328.13 67.5124 1331.53 62.8538 Q1334.93 58.1548 1334.93 49.9314 Q1334.93 41.7081 1331.53 37.0496 Q1328.13 32.3505 1322.21 32.3505 Q1316.3 32.3505 1312.9 37.0496 Q1309.53 41.7081 1309.53 49.9314 Z" fill="#000000" fill-rule="evenodd" fill-opacity="1"></path><path clip-path="url(#clip390)" d="M 0 0 M908.387 1480.37 L915.294 1480.37 L927.102 1498.03 L938.975 1480.37 L945.881 1480.37 L930.604 1503.19 L946.9 1527.89 L939.993 1527.89 L926.625 1507.68 L913.162 1527.89 L906.223 1527.89 L923.188 1502.52 L908.387 1480.37 Z" fill="#000000" fill-rule="evenodd" fill-opacity="1"></path><path clip-path="url(#clip390)" d="M 0 0 M55.608 804.162 L55.608 797.255 L75.1508 784.078 L55.608 770.997 L55.608 764.09 L80.498 780.895 L103.128 780.895 L103.128 787.357 L80.498 787.357 L55.608 804.162 Z" fill="#000000" fill-rule="evenodd" fill-opacity="1"></path><path clip-path="url(#clip392)" d="M228.335 1277.93 L228.335 1389.93 L340.335 1389.93 L340.335 1277.93 L228.335 1277.93 Z" fill="#ffffff" fill-rule="evenodd" fill-opacity="1" stroke="#000000" stroke-opacity="1" stroke-width="3.2"></path>
<path clip-path="url(#clip392)" d="M228.335 1155.75 L228.335 1267.75 L340.335 1267.75 L340.335 1155.75 L228.335 1155.75 Z" fill="#ffffff" fill-rule="evenodd" fill-opacity="1" stroke="#000000" stroke-opacity="1" stroke-width="3.2"></path>
<path clip-path="url(#clip392)" d="M228.335 1033.57 L228.335 1145.57 L340.335 1145.57 L340.335 1033.57 L228.335 1033.57 Z" fill="#ffffff" fill-rule="evenodd" fill-opacity="1" stroke="#000000" stroke-opacity="1" stroke-width="3.2"></path>
<path clip-path="url(#clip392)" d="M228.335 911.395 L228.335 1023.4 L340.335 1023.4 L340.335 911.395 L228.335 911.395 Z" fill="#ffffff" fill-rule="evenodd" fill-opacity="1" stroke="#000000" stroke-opacity="1" stroke-width="3.2"></path>
<path clip-path="url(#clip392)" d="M228.335 789.216 L228.335 901.216 L340.335 901.216 L340.335 789.216 L228.335 789.216 Z" fill="#ffffff" fill-rule="evenodd" fill-opacity="1" stroke="#000000" stroke-opacity="1" stroke-width="3.2"></path>
<path clip-path="url(#clip392)" d="M228.335 667.036 L228.335 779.036 L340.335 779.036 L340.335 667.036 L228.335 667.036 Z" fill="#ffffff" fill-rule="evenodd" fill-opacity="1" stroke="#000000" stroke-opacity="1" stroke-width="3.2"></path>
<path clip-path="url(#clip392)" d="M228.335 544.857 L228.335 656.857 L340.335 656.857 L340.335 544.857 L228.335 544.857 Z" fill="#ffffff" fill-rule="evenodd" fill-opacity="1" stroke="#000000" stroke-opacity="1" stroke-width="3.2"></path>
<path clip-path="url(#clip392)" d="M228.335 422.677 L228.335 534.677 L340.335 534.677 L340.335 422.677 L228.335 422.677 Z" fill="#ffffff" fill-rule="evenodd" fill-opacity="1" stroke="#000000" stroke-opacity="1" stroke-width="3.2"></path>
<path clip-path="url(#clip392)" d="M228.335 300.498 L228.335 412.498 L340.335 412.498 L340.335 300.498 L228.335 300.498 Z" fill="#ffffff" fill-rule="evenodd" fill-opacity="1" stroke="#000000" stroke-opacity="1" stroke-width="3.2"></path>
<path clip-path="url(#clip392)" d="M228.335 178.318 L228.335 290.318 L340.335 290.318 L340.335 178.318 L228.335 178.318 Z" fill="#ffffff" fill-rule="evenodd" fill-opacity="1" stroke="#000000" stroke-opacity="1" stroke-width="3.2"></path>
<path clip-path="url(#clip392)" d="M371.052 1277.93 L371.052 1389.93 L483.052 1389.93 L483.052 1277.93 L371.052 1277.93 Z" fill="#ffffff" fill-rule="evenodd" fill-opacity="1" stroke="#000000" stroke-opacity="1" stroke-width="3.2"></path>
<path clip-path="url(#clip392)" d="M371.052 1033.57 L371.052 1145.57 L483.052 1145.57 L483.052 1033.57 L371.052 1033.57 Z" fill="#ffffff" fill-rule="evenodd" fill-opacity="1" stroke="#000000" stroke-opacity="1" stroke-width="3.2"></path>
<path clip-path="url(#clip392)" d="M371.052 911.395 L371.052 1023.4 L483.052 1023.4 L483.052 911.395 L371.052 911.395 Z" fill="#ffffff" fill-rule="evenodd" fill-opacity="1" stroke="#000000" stroke-opacity="1" stroke-width="3.2"></path>
<path clip-path="url(#clip392)" d="M371.052 789.216 L371.052 901.216 L483.052 901.216 L483.052 789.216 L371.052 789.216 Z" fill="#ffffff" fill-rule="evenodd" fill-opacity="1" stroke="#000000" stroke-opacity="1" stroke-width="3.2"></path>
<path clip-path="url(#clip392)" d="M371.052 667.036 L371.052 779.036 L483.052 779.036 L483.052 667.036 L371.052 667.036 Z" fill="#ffffff" fill-rule="evenodd" fill-opacity="1" stroke="#000000" stroke-opacity="1" stroke-width="3.2"></path>
<path clip-path="url(#clip392)" d="M371.052 544.857 L371.052 656.857 L483.052 656.857 L483.052 544.857 L371.052 544.857 Z" fill="#ffffff" fill-rule="evenodd" fill-opacity="1" stroke="#000000" stroke-opacity="1" stroke-width="3.2"></path>
<path clip-path="url(#clip392)" d="M371.052 422.677 L371.052 534.677 L483.052 534.677 L483.052 422.677 L371.052 422.677 Z" fill="#ffffff" fill-rule="evenodd" fill-opacity="1" stroke="#000000" stroke-opacity="1" stroke-width="3.2"></path>
<path clip-path="url(#clip392)" d="M371.052 300.498 L371.052 412.498 L483.052 412.498 L483.052 300.498 L371.052 300.498 Z" fill="#ffffff" fill-rule="evenodd" fill-opacity="1" stroke="#000000" stroke-opacity="1" stroke-width="3.2"></path>
<path clip-path="url(#clip392)" d="M371.052 178.318 L371.052 290.318 L483.052 290.318 L483.052 178.318 L371.052 178.318 Z" fill="#ffffff" fill-rule="evenodd" fill-opacity="1" stroke="#000000" stroke-opacity="1" stroke-width="3.2"></path>
<path clip-path="url(#clip392)" d="M513.769 1277.93 L513.769 1389.93 L625.769 1389.93 L625.769 1277.93 L513.769 1277.93 Z" fill="#ffffff" fill-rule="evenodd" fill-opacity="1" stroke="#000000" stroke-opacity="1" stroke-width="3.2"></path>
<path clip-path="url(#clip392)" d="M513.769 1155.75 L513.769 1267.75 L625.769 1267.75 L625.769 1155.75 L513.769 1155.75 Z" fill="#ffffff" fill-rule="evenodd" fill-opacity="1" stroke="#000000" stroke-opacity="1" stroke-width="3.2"></path>
<path clip-path="url(#clip392)" d="M513.769 1033.57 L513.769 1145.57 L625.769 1145.57 L625.769 1033.57 L513.769 1033.57 Z" fill="#ffffff" fill-rule="evenodd" fill-opacity="1" stroke="#000000" stroke-opacity="1" stroke-width="3.2"></path>
<path clip-path="url(#clip392)" d="M513.769 911.395 L513.769 1023.4 L625.769 1023.4 L625.769 911.395 L513.769 911.395 Z" fill="#ffffff" fill-rule="evenodd" fill-opacity="1" stroke="#000000" stroke-opacity="1" stroke-width="3.2"></path>
<path clip-path="url(#clip392)" d="M513.769 789.216 L513.769 901.216 L625.769 901.216 L625.769 789.216 L513.769 789.216 Z" fill="#ffffff" fill-rule="evenodd" fill-opacity="1" stroke="#000000" stroke-opacity="1" stroke-width="3.2"></path>
<path clip-path="url(#clip392)" d="M513.769 667.036 L513.769 779.036 L625.769 779.036 L625.769 667.036 L513.769 667.036 Z" fill="#ffffff" fill-rule="evenodd" fill-opacity="1" stroke="#000000" stroke-opacity="1" stroke-width="3.2"></path>
<path clip-path="url(#clip392)" d="M513.769 544.857 L513.769 656.857 L625.769 656.857 L625.769 544.857 L513.769 544.857 Z" fill="#ffffff" fill-rule="evenodd" fill-opacity="1" stroke="#000000" stroke-opacity="1" stroke-width="3.2"></path>
<path clip-path="url(#clip392)" d="M513.769 422.677 L513.769 534.677 L625.769 534.677 L625.769 422.677 L513.769 422.677 Z" fill="#ffffff" fill-rule="evenodd" fill-opacity="1" stroke="#000000" stroke-opacity="1" stroke-width="3.2"></path>
<path clip-path="url(#clip392)" d="M513.769 300.498 L513.769 412.498 L625.769 412.498 L625.769 300.498 L513.769 300.498 Z" fill="#ffffff" fill-rule="evenodd" fill-opacity="1" stroke="#000000" stroke-opacity="1" stroke-width="3.2"></path>
<path clip-path="url(#clip392)" d="M513.769 178.318 L513.769 290.318 L625.769 290.318 L625.769 178.318 L513.769 178.318 Z" fill="#ffffff" fill-rule="evenodd" fill-opacity="1" stroke="#000000" stroke-opacity="1" stroke-width="3.2"></path>
<path clip-path="url(#clip392)" d="M656.486 1277.93 L656.486 1389.93 L768.486 1389.93 L768.486 1277.93 L656.486 1277.93 Z" fill="#ffffff" fill-rule="evenodd" fill-opacity="1" stroke="#000000" stroke-opacity="1" stroke-width="3.2"></path>
<path clip-path="url(#clip392)" d="M656.486 1033.57 L656.486 1145.57 L768.486 1145.57 L768.486 1033.57 L656.486 1033.57 Z" fill="#ffffff" fill-rule="evenodd" fill-opacity="1" stroke="#000000" stroke-opacity="1" stroke-width="3.2"></path>
<path clip-path="url(#clip392)" d="M656.486 911.395 L656.486 1023.4 L768.486 1023.4 L768.486 911.395 L656.486 911.395 Z" fill="#ffffff" fill-rule="evenodd" fill-opacity="1" stroke="#000000" stroke-opacity="1" stroke-width="3.2"></path>
<path clip-path="url(#clip392)" d="M656.486 789.216 L656.486 901.216 L768.486 901.216 L768.486 789.216 L656.486 789.216 Z" fill="#ffffff" fill-rule="evenodd" fill-opacity="1" stroke="#000000" stroke-opacity="1" stroke-width="3.2"></path>
<path clip-path="url(#clip392)" d="M656.486 667.036 L656.486 779.036 L768.486 779.036 L768.486 667.036 L656.486 667.036 Z" fill="#ffffff" fill-rule="evenodd" fill-opacity="1" stroke="#000000" stroke-opacity="1" stroke-width="3.2"></path>
<path clip-path="url(#clip392)" d="M656.486 544.857 L656.486 656.857 L768.486 656.857 L768.486 544.857 L656.486 544.857 Z" fill="#ffffff" fill-rule="evenodd" fill-opacity="1" stroke="#000000" stroke-opacity="1" stroke-width="3.2"></path>
<path clip-path="url(#clip392)" d="M656.486 422.677 L656.486 534.677 L768.486 534.677 L768.486 422.677 L656.486 422.677 Z" fill="#ffffff" fill-rule="evenodd" fill-opacity="1" stroke="#000000" stroke-opacity="1" stroke-width="3.2"></path>
<path clip-path="url(#clip392)" d="M656.486 300.498 L656.486 412.498 L768.486 412.498 L768.486 300.498 L656.486 300.498 Z" fill="#ffffff" fill-rule="evenodd" fill-opacity="1" stroke="#000000" stroke-opacity="1" stroke-width="3.2"></path>
<path clip-path="url(#clip392)" d="M656.486 178.318 L656.486 290.318 L768.486 290.318 L768.486 178.318 L656.486 178.318 Z" fill="#ffffff" fill-rule="evenodd" fill-opacity="1" stroke="#000000" stroke-opacity="1" stroke-width="3.2"></path>
<path clip-path="url(#clip392)" d="M799.203 1277.93 L799.203 1389.93 L911.203 1389.93 L911.203 1277.93 L799.203 1277.93 Z" fill="#ffffff" fill-rule="evenodd" fill-opacity="1" stroke="#000000" stroke-opacity="1" stroke-width="3.2"></path>
<path clip-path="url(#clip392)" d="M799.203 1155.75 L799.203 1267.75 L911.203 1267.75 L911.203 1155.75 L799.203 1155.75 Z" fill="#ffffff" fill-rule="evenodd" fill-opacity="1" stroke="#000000" stroke-opacity="1" stroke-width="3.2"></path>
<path clip-path="url(#clip392)" d="M799.203 1033.57 L799.203 1145.57 L911.203 1145.57 L911.203 1033.57 L799.203 1033.57 Z" fill="#ffffff" fill-rule="evenodd" fill-opacity="1" stroke="#000000" stroke-opacity="1" stroke-width="3.2"></path>
<path clip-path="url(#clip392)" d="M799.203 911.395 L799.203 1023.4 L911.203 1023.4 L911.203 911.395 L799.203 911.395 Z" fill="#ffffff" fill-rule="evenodd" fill-opacity="1" stroke="#000000" stroke-opacity="1" stroke-width="3.2"></path>
<path clip-path="url(#clip392)" d="M799.203 789.216 L799.203 901.216 L911.203 901.216 L911.203 789.216 L799.203 789.216 Z" fill="#ffffff" fill-rule="evenodd" fill-opacity="1" stroke="#000000" stroke-opacity="1" stroke-width="3.2"></path>
<path clip-path="url(#clip392)" d="M799.203 667.036 L799.203 779.036 L911.203 779.036 L911.203 667.036 L799.203 667.036 Z" fill="#ffffff" fill-rule="evenodd" fill-opacity="1" stroke="#000000" stroke-opacity="1" stroke-width="3.2"></path>
<path clip-path="url(#clip392)" d="M799.203 544.857 L799.203 656.857 L911.203 656.857 L911.203 544.857 L799.203 544.857 Z" fill="#ffffff" fill-rule="evenodd" fill-opacity="1" stroke="#000000" stroke-opacity="1" stroke-width="3.2"></path>
<path clip-path="url(#clip392)" d="M799.203 422.677 L799.203 534.677 L911.203 534.677 L911.203 422.677 L799.203 422.677 Z" fill="#ffffff" fill-rule="evenodd" fill-opacity="1" stroke="#000000" stroke-opacity="1" stroke-width="3.2"></path>
<path clip-path="url(#clip392)" d="M799.203 300.498 L799.203 412.498 L911.203 412.498 L911.203 300.498 L799.203 300.498 Z" fill="#ffffff" fill-rule="evenodd" fill-opacity="1" stroke="#000000" stroke-opacity="1" stroke-width="3.2"></path>
<path clip-path="url(#clip392)" d="M799.203 178.318 L799.203 290.318 L911.203 290.318 L911.203 178.318 L799.203 178.318 Z" fill="#ffffff" fill-rule="evenodd" fill-opacity="1" stroke="#000000" stroke-opacity="1" stroke-width="3.2"></path>
<path clip-path="url(#clip392)" d="M941.92 1277.93 L941.92 1389.93 L1053.92 1389.93 L1053.92 1277.93 L941.92 1277.93 Z" fill="#ffffff" fill-rule="evenodd" fill-opacity="1" stroke="#000000" stroke-opacity="1" stroke-width="3.2"></path>
<path clip-path="url(#clip392)" d="M941.92 1155.75 L941.92 1267.75 L1053.92 1267.75 L1053.92 1155.75 L941.92 1155.75 Z" fill="#ffffff" fill-rule="evenodd" fill-opacity="1" stroke="#000000" stroke-opacity="1" stroke-width="3.2"></path>
<path clip-path="url(#clip392)" d="M941.92 1033.57 L941.92 1145.57 L1053.92 1145.57 L1053.92 1033.57 L941.92 1033.57 Z" fill="#ffffff" fill-rule="evenodd" fill-opacity="1" stroke="#000000" stroke-opacity="1" stroke-width="3.2"></path>
<path clip-path="url(#clip392)" d="M941.92 789.216 L941.92 901.216 L1053.92 901.216 L1053.92 789.216 L941.92 789.216 Z" fill="#ffffff" fill-rule="evenodd" fill-opacity="1" stroke="#000000" stroke-opacity="1" stroke-width="3.2"></path>
<path clip-path="url(#clip392)" d="M941.92 667.036 L941.92 779.036 L1053.92 779.036 L1053.92 667.036 L941.92 667.036 Z" fill="#ffffff" fill-rule="evenodd" fill-opacity="1" stroke="#000000" stroke-opacity="1" stroke-width="3.2"></path>
<path clip-path="url(#clip392)" d="M941.92 544.857 L941.92 656.857 L1053.92 656.857 L1053.92 544.857 L941.92 544.857 Z" fill="#ffffff" fill-rule="evenodd" fill-opacity="1" stroke="#000000" stroke-opacity="1" stroke-width="3.2"></path>
<path clip-path="url(#clip392)" d="M941.92 422.677 L941.92 534.677 L1053.92 534.677 L1053.92 422.677 L941.92 422.677 Z" fill="#ffffff" fill-rule="evenodd" fill-opacity="1" stroke="#000000" stroke-opacity="1" stroke-width="3.2"></path>
<path clip-path="url(#clip392)" d="M941.92 300.498 L941.92 412.498 L1053.92 412.498 L1053.92 300.498 L941.92 300.498 Z" fill="#ffffff" fill-rule="evenodd" fill-opacity="1" stroke="#000000" stroke-opacity="1" stroke-width="3.2"></path>
<path clip-path="url(#clip392)" d="M941.92 178.318 L941.92 290.318 L1053.92 290.318 L1053.92 178.318 L941.92 178.318 Z" fill="#ffffff" fill-rule="evenodd" fill-opacity="1" stroke="#000000" stroke-opacity="1" stroke-width="3.2"></path>
<path clip-path="url(#clip392)" d="M1084.64 1277.93 L1084.64 1389.93 L1196.64 1389.93 L1196.64 1277.93 L1084.64 1277.93 Z" fill="#ffffff" fill-rule="evenodd" fill-opacity="1" stroke="#000000" stroke-opacity="1" stroke-width="3.2"></path>
<path clip-path="url(#clip392)" d="M1084.64 1155.75 L1084.64 1267.75 L1196.64 1267.75 L1196.64 1155.75 L1084.64 1155.75 Z" fill="#ffffff" fill-rule="evenodd" fill-opacity="1" stroke="#000000" stroke-opacity="1" stroke-width="3.2"></path>
<path clip-path="url(#clip392)" d="M1084.64 1033.57 L1084.64 1145.57 L1196.64 1145.57 L1196.64 1033.57 L1084.64 1033.57 Z" fill="#ffffff" fill-rule="evenodd" fill-opacity="1" stroke="#000000" stroke-opacity="1" stroke-width="3.2"></path>
<path clip-path="url(#clip392)" d="M1084.64 911.395 L1084.64 1023.4 L1196.64 1023.4 L1196.64 911.395 L1084.64 911.395 Z" fill="#ffffff" fill-rule="evenodd" fill-opacity="1" stroke="#000000" stroke-opacity="1" stroke-width="3.2"></path>
<path clip-path="url(#clip392)" d="M1084.64 789.216 L1084.64 901.216 L1196.64 901.216 L1196.64 789.216 L1084.64 789.216 Z" fill="#ffffff" fill-rule="evenodd" fill-opacity="1" stroke="#000000" stroke-opacity="1" stroke-width="3.2"></path>
<path clip-path="url(#clip392)" d="M1084.64 667.036 L1084.64 779.036 L1196.64 779.036 L1196.64 667.036 L1084.64 667.036 Z" fill="#ffffff" fill-rule="evenodd" fill-opacity="1" stroke="#000000" stroke-opacity="1" stroke-width="3.2"></path>
<path clip-path="url(#clip392)" d="M1084.64 544.857 L1084.64 656.857 L1196.64 656.857 L1196.64 544.857 L1084.64 544.857 Z" fill="#ffffff" fill-rule="evenodd" fill-opacity="1" stroke="#000000" stroke-opacity="1" stroke-width="3.2"></path>
<path clip-path="url(#clip392)" d="M1084.64 422.677 L1084.64 534.677 L1196.64 534.677 L1196.64 422.677 L1084.64 422.677 Z" fill="#ffffff" fill-rule="evenodd" fill-opacity="1" stroke="#000000" stroke-opacity="1" stroke-width="3.2"></path>
<path clip-path="url(#clip392)" d="M1084.64 178.318 L1084.64 290.318 L1196.64 290.318 L1196.64 178.318 L1084.64 178.318 Z" fill="#ffffff" fill-rule="evenodd" fill-opacity="1" stroke="#000000" stroke-opacity="1" stroke-width="3.2"></path>
<path clip-path="url(#clip392)" d="M1227.35 1277.93 L1227.35 1389.93 L1339.35 1389.93 L1339.35 1277.93 L1227.35 1277.93 Z" fill="#ffffff" fill-rule="evenodd" fill-opacity="1" stroke="#000000" stroke-opacity="1" stroke-width="3.2"></path>
<path clip-path="url(#clip392)" d="M1227.35 1155.75 L1227.35 1267.75 L1339.35 1267.75 L1339.35 1155.75 L1227.35 1155.75 Z" fill="#ffffff" fill-rule="evenodd" fill-opacity="1" stroke="#000000" stroke-opacity="1" stroke-width="3.2"></path>
<path clip-path="url(#clip392)" d="M1227.35 1033.57 L1227.35 1145.57 L1339.35 1145.57 L1339.35 1033.57 L1227.35 1033.57 Z" fill="#ffffff" fill-rule="evenodd" fill-opacity="1" stroke="#000000" stroke-opacity="1" stroke-width="3.2"></path>
<path clip-path="url(#clip392)" d="M1227.35 911.395 L1227.35 1023.4 L1339.35 1023.4 L1339.35 911.395 L1227.35 911.395 Z" fill="#ffffff" fill-rule="evenodd" fill-opacity="1" stroke="#000000" stroke-opacity="1" stroke-width="3.2"></path>
<path clip-path="url(#clip392)" d="M1227.35 667.036 L1227.35 779.036 L1339.35 779.036 L1339.35 667.036 L1227.35 667.036 Z" fill="#ffffff" fill-rule="evenodd" fill-opacity="1" stroke="#000000" stroke-opacity="1" stroke-width="3.2"></path>
<path clip-path="url(#clip392)" d="M1227.35 544.857 L1227.35 656.857 L1339.35 656.857 L1339.35 544.857 L1227.35 544.857 Z" fill="#ffffff" fill-rule="evenodd" fill-opacity="1" stroke="#000000" stroke-opacity="1" stroke-width="3.2"></path>
<path clip-path="url(#clip392)" d="M1227.35 422.677 L1227.35 534.677 L1339.35 534.677 L1339.35 422.677 L1227.35 422.677 Z" fill="#ffffff" fill-rule="evenodd" fill-opacity="1" stroke="#000000" stroke-opacity="1" stroke-width="3.2"></path>
<path clip-path="url(#clip392)" d="M1227.35 300.498 L1227.35 412.498 L1339.35 412.498 L1339.35 300.498 L1227.35 300.498 Z" fill="#ffffff" fill-rule="evenodd" fill-opacity="1" stroke="#000000" stroke-opacity="1" stroke-width="3.2"></path>
<path clip-path="url(#clip392)" d="M1227.35 178.318 L1227.35 290.318 L1339.35 290.318 L1339.35 178.318 L1227.35 178.318 Z" fill="#ffffff" fill-rule="evenodd" fill-opacity="1" stroke="#000000" stroke-opacity="1" stroke-width="3.2"></path>
<path clip-path="url(#clip392)" d="M1370.07 1277.93 L1370.07 1389.93 L1482.07 1389.93 L1482.07 1277.93 L1370.07 1277.93 Z" fill="#ffffff" fill-rule="evenodd" fill-opacity="1" stroke="#000000" stroke-opacity="1" stroke-width="3.2"></path>
<path clip-path="url(#clip392)" d="M1370.07 1155.75 L1370.07 1267.75 L1482.07 1267.75 L1482.07 1155.75 L1370.07 1155.75 Z" fill="#ffffff" fill-rule="evenodd" fill-opacity="1" stroke="#000000" stroke-opacity="1" stroke-width="3.2"></path>
<path clip-path="url(#clip392)" d="M1370.07 1033.57 L1370.07 1145.57 L1482.07 1145.57 L1482.07 1033.57 L1370.07 1033.57 Z" fill="#ffffff" fill-rule="evenodd" fill-opacity="1" stroke="#000000" stroke-opacity="1" stroke-width="3.2"></path>
<path clip-path="url(#clip392)" d="M1370.07 911.395 L1370.07 1023.4 L1482.07 1023.4 L1482.07 911.395 L1370.07 911.395 Z" fill="#ffffff" fill-rule="evenodd" fill-opacity="1" stroke="#000000" stroke-opacity="1" stroke-width="3.2"></path>
<path clip-path="url(#clip392)" d="M1370.07 789.216 L1370.07 901.216 L1482.07 901.216 L1482.07 789.216 L1370.07 789.216 Z" fill="#ffffff" fill-rule="evenodd" fill-opacity="1" stroke="#000000" stroke-opacity="1" stroke-width="3.2"></path>
<path clip-path="url(#clip392)" d="M1370.07 667.036 L1370.07 779.036 L1482.07 779.036 L1482.07 667.036 L1370.07 667.036 Z" fill="#ffffff" fill-rule="evenodd" fill-opacity="1" stroke="#000000" stroke-opacity="1" stroke-width="3.2"></path>
<path clip-path="url(#clip392)" d="M1370.07 544.857 L1370.07 656.857 L1482.07 656.857 L1482.07 544.857 L1370.07 544.857 Z" fill="#ffffff" fill-rule="evenodd" fill-opacity="1" stroke="#000000" stroke-opacity="1" stroke-width="3.2"></path>
<path clip-path="url(#clip392)" d="M1370.07 422.677 L1370.07 534.677 L1482.07 534.677 L1482.07 422.677 L1370.07 422.677 Z" fill="#ffffff" fill-rule="evenodd" fill-opacity="1" stroke="#000000" stroke-opacity="1" stroke-width="3.2"></path>
<path clip-path="url(#clip392)" d="M1370.07 300.498 L1370.07 412.498 L1482.07 412.498 L1482.07 300.498 L1370.07 300.498 Z" fill="#ffffff" fill-rule="evenodd" fill-opacity="1" stroke="#000000" stroke-opacity="1" stroke-width="3.2"></path>
<path clip-path="url(#clip392)" d="M1370.07 178.318 L1370.07 290.318 L1482.07 290.318 L1482.07 178.318 L1370.07 178.318 Z" fill="#ffffff" fill-rule="evenodd" fill-opacity="1" stroke="#000000" stroke-opacity="1" stroke-width="3.2"></path>
<path clip-path="url(#clip392)" d="M1512.79 1277.93 L1512.79 1389.93 L1624.79 1389.93 L1624.79 1277.93 L1512.79 1277.93 Z" fill="#ffffff" fill-rule="evenodd" fill-opacity="1" stroke="#000000" stroke-opacity="1" stroke-width="3.2"></path>
<path clip-path="url(#clip392)" d="M1512.79 1155.75 L1512.79 1267.75 L1624.79 1267.75 L1624.79 1155.75 L1512.79 1155.75 Z" fill="#ffffff" fill-rule="evenodd" fill-opacity="1" stroke="#000000" stroke-opacity="1" stroke-width="3.2"></path>
<path clip-path="url(#clip392)" d="M1512.79 1033.57 L1512.79 1145.57 L1624.79 1145.57 L1624.79 1033.57 L1512.79 1033.57 Z" fill="#ffffff" fill-rule="evenodd" fill-opacity="1" stroke="#000000" stroke-opacity="1" stroke-width="3.2"></path>
<path clip-path="url(#clip392)" d="M1512.79 911.395 L1512.79 1023.4 L1624.79 1023.4 L1624.79 911.395 L1512.79 911.395 Z" fill="#ffffff" fill-rule="evenodd" fill-opacity="1" stroke="#000000" stroke-opacity="1" stroke-width="3.2"></path>
<path clip-path="url(#clip392)" d="M1512.79 789.216 L1512.79 901.216 L1624.79 901.216 L1624.79 789.216 L1512.79 789.216 Z" fill="#ffffff" fill-rule="evenodd" fill-opacity="1" stroke="#000000" stroke-opacity="1" stroke-width="3.2"></path>
<path clip-path="url(#clip392)" d="M1512.79 544.857 L1512.79 656.857 L1624.79 656.857 L1624.79 544.857 L1512.79 544.857 Z" fill="#ffffff" fill-rule="evenodd" fill-opacity="1" stroke="#000000" stroke-opacity="1" stroke-width="3.2"></path>
<path clip-path="url(#clip392)" d="M1512.79 422.677 L1512.79 534.677 L1624.79 534.677 L1624.79 422.677 L1512.79 422.677 Z" fill="#ffffff" fill-rule="evenodd" fill-opacity="1" stroke="#000000" stroke-opacity="1" stroke-width="3.2"></path>
<path clip-path="url(#clip392)" d="M1512.79 300.498 L1512.79 412.498 L1624.79 412.498 L1624.79 300.498 L1512.79 300.498 Z" fill="#ffffff" fill-rule="evenodd" fill-opacity="1" stroke="#000000" stroke-opacity="1" stroke-width="3.2"></path>
<path clip-path="url(#clip392)" d="M1512.79 178.318 L1512.79 290.318 L1624.79 290.318 L1624.79 178.318 L1512.79 178.318 Z" fill="#ffffff" fill-rule="evenodd" fill-opacity="1" stroke="#000000" stroke-opacity="1" stroke-width="3.2"></path>
<path clip-path="url(#clip392)" d="M371.052 1155.75 L371.052 1267.75 L483.052 1267.75 L483.052 1155.75 L371.052 1155.75 Z" fill="#ffa500" fill-rule="evenodd" fill-opacity="1" stroke="#000000" stroke-opacity="1" stroke-width="3.2"></path>
<path clip-path="url(#clip392)" d="M656.486 1155.75 L656.486 1267.75 L768.486 1267.75 L768.486 1155.75 L656.486 1155.75 Z" fill="#ffa500" fill-rule="evenodd" fill-opacity="1" stroke="#000000" stroke-opacity="1" stroke-width="3.2"></path>
<path clip-path="url(#clip392)" d="M1512.79 667.036 L1512.79 779.036 L1624.79 779.036 L1624.79 667.036 L1512.79 667.036 Z" fill="#008000" fill-rule="evenodd" fill-opacity="1" stroke="#000000" stroke-opacity="1" stroke-width="3.2"></path>
<path clip-path="url(#clip392)" d="M941.92 911.395 L941.92 1023.4 L1053.92 1023.4 L1053.92 911.395 L941.92 911.395 Z" fill="#000000" fill-rule="evenodd" fill-opacity="1" stroke="none"></path>
<path clip-path="url(#clip392)" d="M1084.64 300.498 L1084.64 412.498 L1196.64 412.498 L1196.64 300.498 L1084.64 300.498 Z" fill="#000000" fill-rule="evenodd" fill-opacity="1" stroke="none"></path>
<path clip-path="url(#clip392)" d="M1227.35 789.216 L1227.35 901.216 L1339.35 901.216 L1339.35 789.216 L1227.35 789.216 Z" fill="#000000" fill-rule="evenodd" fill-opacity="1" stroke="none"></path>
<path clip-path="url(#clip390)" d="
M1712.15 559.148 L2266.52 559.148 L2266.52 256.748 L1712.15 256.748  Z
  " fill="#ffffff" fill-rule="evenodd" fill-opacity="1"></path>
<polyline clip-path="url(#clip390)" style="stroke:#000000; stroke-width:4; stroke-opacity:1; fill:none" points="
  1712.15,559.148 2266.52,559.148 2266.52,256.748 1712.15,256.748 1712.15,559.148 
  "></polyline>
<path clip-path="url(#clip390)" d="M1794.55 291.628 L1794.55 342.828 L1845.75 342.828 L1845.75 291.628 L1794.55 291.628 Z" fill="#ffffff" fill-rule="evenodd" fill-opacity="1" stroke="#000000" stroke-opacity="1" stroke-width="1.46286"></path>
<path clip-path="url(#clip390)" d="M 0 0 M1904.15 299.948 L1926 299.948 L1926 303.884 L1908.82 303.884 L1908.82 314.115 L1925.28 314.115 L1925.28 318.05 L1908.82 318.05 L1908.82 330.573 L1926.41 330.573 L1926.41 334.508 L1904.15 334.508 L1904.15 299.948 Z" fill="#000000" fill-rule="evenodd" fill-opacity="1"></path><path clip-path="url(#clip390)" d="M 0 0 M1951.07 313.559 Q1952.66 310.689 1954.89 309.323 Q1957.11 307.958 1960.12 307.958 Q1964.17 307.958 1966.37 310.805 Q1968.57 313.629 1968.57 318.86 L1968.57 334.508 L1964.28 334.508 L1964.28 318.999 Q1964.28 315.272 1962.97 313.467 Q1961.65 311.661 1958.94 311.661 Q1955.63 311.661 1953.71 313.86 Q1951.79 316.059 1951.79 319.856 L1951.79 334.508 L1947.5 334.508 L1947.5 318.999 Q1947.5 315.249 1946.18 313.467 Q1944.86 311.661 1942.11 311.661 Q1938.85 311.661 1936.92 313.883 Q1935 316.083 1935 319.856 L1935 334.508 L1930.72 334.508 L1930.72 308.583 L1935 308.583 L1935 312.61 Q1936.46 310.226 1938.5 309.092 Q1940.54 307.958 1943.34 307.958 Q1946.16 307.958 1948.13 309.393 Q1950.12 310.828 1951.07 313.559 Z" fill="#000000" fill-rule="evenodd" fill-opacity="1"></path><path clip-path="url(#clip390)" d="M 0 0 M1977.16 330.619 L1977.16 344.369 L1972.87 344.369 L1972.87 308.583 L1977.16 308.583 L1977.16 312.518 Q1978.5 310.203 1980.53 309.092 Q1982.6 307.958 1985.44 307.958 Q1990.16 307.958 1993.1 311.708 Q1996.07 315.458 1996.07 321.569 Q1996.07 327.68 1993.1 331.43 Q1990.16 335.18 1985.44 335.18 Q1982.6 335.18 1980.53 334.069 Q1978.5 332.934 1977.16 330.619 M1991.65 321.569 Q1991.65 316.87 1989.7 314.208 Q1987.78 311.522 1984.4 311.522 Q1981.02 311.522 1979.08 314.208 Q1977.16 316.87 1977.16 321.569 Q1977.16 326.268 1979.08 328.953 Q1981.02 331.615 1984.4 331.615 Q1987.78 331.615 1989.7 328.953 Q1991.65 326.268 1991.65 321.569 Z" fill="#000000" fill-rule="evenodd" fill-opacity="1"></path><path clip-path="url(#clip390)" d="M 0 0 M2004.75 301.221 L2004.75 308.583 L2013.52 308.583 L2013.52 311.893 L2004.75 311.893 L2004.75 325.967 Q2004.75 329.138 2005.6 330.041 Q2006.48 330.944 2009.15 330.944 L2013.52 330.944 L2013.52 334.508 L2009.15 334.508 Q2004.22 334.508 2002.34 332.68 Q2000.47 330.828 2000.47 325.967 L2000.47 311.893 L1997.34 311.893 L1997.34 308.583 L2000.47 308.583 L2000.47 301.221 L2004.75 301.221 Z" fill="#000000" fill-rule="evenodd" fill-opacity="1"></path><path clip-path="url(#clip390)" d="M 0 0 M2028.78 336.916 Q2026.97 341.545 2025.26 342.957 Q2023.54 344.369 2020.67 344.369 L2017.27 344.369 L2017.27 340.805 L2019.77 340.805 Q2021.53 340.805 2022.5 339.971 Q2023.47 339.138 2024.65 336.036 L2025.42 334.092 L2014.93 308.583 L2019.45 308.583 L2027.55 328.86 L2035.65 308.583 L2040.16 308.583 L2028.78 336.916 Z" fill="#000000" fill-rule="evenodd" fill-opacity="1"></path><path clip-path="url(#clip390)" d="M1794.55 352.108 L1794.55 403.308 L1845.75 403.308 L1845.75 352.108 L1794.55 352.108 Z" fill="#ffa500" fill-rule="evenodd" fill-opacity="1" stroke="#000000" stroke-opacity="1" stroke-width="1.46286"></path>
<path clip-path="url(#clip390)" d="M 0 0 M1904.15 360.428 L1924.01 360.428 L1924.01 364.364 L1908.82 364.364 L1908.82 374.549 L1922.53 374.549 L1922.53 378.484 L1908.82 378.484 L1908.82 394.988 L1904.15 394.988 L1904.15 360.428 Z" fill="#000000" fill-rule="evenodd" fill-opacity="1"></path><path clip-path="url(#clip390)" d="M 0 0 M1936.83 372.049 Q1933.41 372.049 1931.41 374.734 Q1929.42 377.396 1929.42 382.049 Q1929.42 386.701 1931.39 389.387 Q1933.38 392.049 1936.83 392.049 Q1940.23 392.049 1942.22 389.363 Q1944.22 386.678 1944.22 382.049 Q1944.22 377.442 1942.22 374.757 Q1940.23 372.049 1936.83 372.049 M1936.83 368.438 Q1942.39 368.438 1945.56 372.049 Q1948.73 375.66 1948.73 382.049 Q1948.73 388.414 1945.56 392.049 Q1942.39 395.66 1936.83 395.66 Q1931.25 395.66 1928.08 392.049 Q1924.93 388.414 1924.93 382.049 Q1924.93 375.66 1928.08 372.049 Q1931.25 368.438 1936.83 368.438 Z" fill="#000000" fill-rule="evenodd" fill-opacity="1"></path><path clip-path="url(#clip390)" d="M 0 0 M1953.2 358.97 L1957.46 358.97 L1957.46 394.988 L1953.2 394.988 L1953.2 358.97 Z" fill="#000000" fill-rule="evenodd" fill-opacity="1"></path><path clip-path="url(#clip390)" d="M 0 0 M1961.92 358.97 L1966.18 358.97 L1966.18 394.988 L1961.92 394.988 L1961.92 358.97 Z" fill="#000000" fill-rule="evenodd" fill-opacity="1"></path><path clip-path="url(#clip390)" d="M 0 0 M1980.7 372.049 Q1977.27 372.049 1975.28 374.734 Q1973.29 377.396 1973.29 382.049 Q1973.29 386.701 1975.26 389.387 Q1977.25 392.049 1980.7 392.049 Q1984.1 392.049 1986.09 389.363 Q1988.08 386.678 1988.08 382.049 Q1988.08 377.442 1986.09 374.757 Q1984.1 372.049 1980.7 372.049 M1980.7 368.438 Q1986.25 368.438 1989.42 372.049 Q1992.59 375.66 1992.59 382.049 Q1992.59 388.414 1989.42 392.049 Q1986.25 395.66 1980.7 395.66 Q1975.12 395.66 1971.95 392.049 Q1968.8 388.414 1968.8 382.049 Q1968.8 375.66 1971.95 372.049 Q1975.12 368.438 1980.7 368.438 Z" fill="#000000" fill-rule="evenodd" fill-opacity="1"></path><path clip-path="url(#clip390)" d="M 0 0 M1994.59 369.063 L1998.84 369.063 L2004.17 389.294 L2009.47 369.063 L2014.49 369.063 L2019.82 389.294 L2025.12 369.063 L2029.38 369.063 L2022.59 394.988 L2017.57 394.988 L2011.99 373.738 L2006.39 394.988 L2001.37 394.988 L1994.59 369.063 Z" fill="#000000" fill-rule="evenodd" fill-opacity="1"></path><path clip-path="url(#clip390)" d="M 0 0 M2056.02 380.961 L2056.02 383.044 L2036.44 383.044 Q2036.72 387.442 2039.08 389.757 Q2041.46 392.049 2045.7 392.049 Q2048.15 392.049 2050.44 391.447 Q2052.76 390.845 2055.03 389.641 L2055.03 393.669 Q2052.73 394.641 2050.33 395.15 Q2047.92 395.66 2045.44 395.66 Q2039.24 395.66 2035.6 392.049 Q2031.99 388.437 2031.99 382.28 Q2031.99 375.914 2035.42 372.188 Q2038.87 368.438 2044.7 368.438 Q2049.93 368.438 2052.97 371.817 Q2056.02 375.174 2056.02 380.961 M2051.76 379.711 Q2051.72 376.215 2049.79 374.132 Q2047.9 372.049 2044.75 372.049 Q2041.18 372.049 2039.03 374.063 Q2036.9 376.076 2036.58 379.734 L2051.76 379.711 Z" fill="#000000" fill-rule="evenodd" fill-opacity="1"></path><path clip-path="url(#clip390)" d="M 0 0 M2075.51 373.044 Q2074.79 372.627 2073.94 372.442 Q2073.1 372.234 2072.09 372.234 Q2068.47 372.234 2066.53 374.595 Q2064.61 376.933 2064.61 381.331 L2064.61 394.988 L2060.33 394.988 L2060.33 369.063 L2064.61 369.063 L2064.61 373.09 Q2065.95 370.729 2068.1 369.595 Q2070.26 368.438 2073.34 368.438 Q2073.78 368.438 2074.31 368.507 Q2074.84 368.553 2075.49 368.669 L2075.51 373.044 Z" fill="#000000" fill-rule="evenodd" fill-opacity="1"></path><path clip-path="url(#clip390)" d="M 0 0 M2106.78 365.035 L2100.44 382.234 L2113.15 382.234 L2106.78 365.035 M2104.15 360.428 L2109.45 360.428 L2122.62 394.988 L2117.76 394.988 L2114.61 386.123 L2099.03 386.123 L2095.88 394.988 L2090.95 394.988 L2104.15 360.428 Z" fill="#000000" fill-rule="evenodd" fill-opacity="1"></path><path clip-path="url(#clip390)" d="M 0 0 M2144.15 381.725 Q2144.15 377.095 2142.22 374.549 Q2140.33 372.002 2136.88 372.002 Q2133.45 372.002 2131.53 374.549 Q2129.63 377.095 2129.63 381.725 Q2129.63 386.331 2131.53 388.877 Q2133.45 391.424 2136.88 391.424 Q2140.33 391.424 2142.22 388.877 Q2144.15 386.331 2144.15 381.725 M2148.4 391.771 Q2148.4 398.391 2145.46 401.609 Q2142.52 404.849 2136.46 404.849 Q2134.21 404.849 2132.22 404.502 Q2130.23 404.178 2128.36 403.484 L2128.36 399.34 Q2130.23 400.359 2132.06 400.845 Q2133.89 401.331 2135.79 401.331 Q2139.98 401.331 2142.06 399.132 Q2144.15 396.956 2144.15 392.535 L2144.15 390.428 Q2142.83 392.72 2140.77 393.854 Q2138.71 394.988 2135.83 394.988 Q2131.07 394.988 2128.15 391.354 Q2125.23 387.72 2125.23 381.725 Q2125.23 375.706 2128.15 372.072 Q2131.07 368.438 2135.83 368.438 Q2138.71 368.438 2140.77 369.572 Q2142.83 370.706 2144.15 372.998 L2144.15 369.063 L2148.4 369.063 L2148.4 391.771 Z" fill="#000000" fill-rule="evenodd" fill-opacity="1"></path><path clip-path="url(#clip390)" d="M 0 0 M2175.05 380.961 L2175.05 383.044 L2155.46 383.044 Q2155.74 387.442 2158.1 389.757 Q2160.49 392.049 2164.72 392.049 Q2167.18 392.049 2169.47 391.447 Q2171.78 390.845 2174.05 389.641 L2174.05 393.669 Q2171.76 394.641 2169.35 395.15 Q2166.95 395.66 2164.47 395.66 Q2158.27 395.66 2154.63 392.049 Q2151.02 388.437 2151.02 382.28 Q2151.02 375.914 2154.45 372.188 Q2157.9 368.438 2163.73 368.438 Q2168.96 368.438 2171.99 371.817 Q2175.05 375.174 2175.05 380.961 M2170.79 379.711 Q2170.74 376.215 2168.82 374.132 Q2166.92 372.049 2163.77 372.049 Q2160.21 372.049 2158.06 374.063 Q2155.93 376.076 2155.6 379.734 L2170.79 379.711 Z" fill="#000000" fill-rule="evenodd" fill-opacity="1"></path><path clip-path="url(#clip390)" d="M 0 0 M2201.07 379.34 L2201.07 394.988 L2196.81 394.988 L2196.81 379.479 Q2196.81 375.799 2195.37 373.97 Q2193.94 372.141 2191.07 372.141 Q2187.62 372.141 2185.63 374.34 Q2183.64 376.539 2183.64 380.336 L2183.64 394.988 L2179.35 394.988 L2179.35 369.063 L2183.64 369.063 L2183.64 373.09 Q2185.16 370.752 2187.22 369.595 Q2189.31 368.438 2192.02 368.438 Q2196.48 368.438 2198.77 371.215 Q2201.07 373.97 2201.07 379.34 Z" fill="#000000" fill-rule="evenodd" fill-opacity="1"></path><path clip-path="url(#clip390)" d="M 0 0 M2209.75 361.701 L2209.75 369.063 L2218.52 369.063 L2218.52 372.373 L2209.75 372.373 L2209.75 386.447 Q2209.75 389.618 2210.6 390.521 Q2211.48 391.424 2214.14 391.424 L2218.52 391.424 L2218.52 394.988 L2214.14 394.988 Q2209.21 394.988 2207.34 393.16 Q2205.46 391.308 2205.46 386.447 L2205.46 372.373 L2202.34 372.373 L2202.34 369.063 L2205.46 369.063 L2205.46 361.701 L2209.75 361.701 Z" fill="#000000" fill-rule="evenodd" fill-opacity="1"></path><path clip-path="url(#clip390)" d="M1794.55 412.588 L1794.55 463.788 L1845.75 463.788 L1845.75 412.588 L1794.55 412.588 Z" fill="#008000" fill-rule="evenodd" fill-opacity="1" stroke="#000000" stroke-opacity="1" stroke-width="1.46286"></path>
<path clip-path="url(#clip390)" d="M 0 0 M1904.15 420.908 L1908.82 420.908 L1908.82 451.533 L1925.65 451.533 L1925.65 455.468 L1904.15 455.468 L1904.15 420.908 Z" fill="#000000" fill-rule="evenodd" fill-opacity="1"></path><path clip-path="url(#clip390)" d="M 0 0 M1951.46 441.441 L1951.46 443.524 L1931.88 443.524 Q1932.16 447.922 1934.52 450.237 Q1936.9 452.529 1941.14 452.529 Q1943.59 452.529 1945.88 451.927 Q1948.2 451.325 1950.47 450.121 L1950.47 454.149 Q1948.17 455.121 1945.77 455.63 Q1943.36 456.14 1940.88 456.14 Q1934.68 456.14 1931.04 452.529 Q1927.43 448.917 1927.43 442.76 Q1927.43 436.394 1930.86 432.668 Q1934.31 428.918 1940.14 428.918 Q1945.37 428.918 1948.41 432.297 Q1951.46 435.654 1951.46 441.441 M1947.2 440.191 Q1947.16 436.695 1945.23 434.612 Q1943.34 432.529 1940.19 432.529 Q1936.62 432.529 1934.47 434.543 Q1932.34 436.556 1932.02 440.214 L1947.2 440.191 Z" fill="#000000" fill-rule="evenodd" fill-opacity="1"></path><path clip-path="url(#clip390)" d="M 0 0 M1967.71 442.436 Q1962.55 442.436 1960.56 443.617 Q1958.57 444.797 1958.57 447.644 Q1958.57 449.913 1960.05 451.255 Q1961.55 452.575 1964.12 452.575 Q1967.66 452.575 1969.79 450.075 Q1971.95 447.552 1971.95 443.385 L1971.95 442.436 L1967.71 442.436 M1976.21 440.677 L1976.21 455.468 L1971.95 455.468 L1971.95 451.533 Q1970.49 453.894 1968.31 455.029 Q1966.14 456.14 1962.99 456.14 Q1959.01 456.14 1956.65 453.917 Q1954.31 451.672 1954.31 447.922 Q1954.31 443.547 1957.22 441.325 Q1960.16 439.103 1965.97 439.103 L1971.95 439.103 L1971.95 438.686 Q1971.95 435.746 1970 434.149 Q1968.08 432.529 1964.59 432.529 Q1962.36 432.529 1960.26 433.061 Q1958.15 433.593 1956.21 434.658 L1956.21 430.723 Q1958.54 429.82 1960.74 429.381 Q1962.94 428.918 1965.03 428.918 Q1970.65 428.918 1973.43 431.834 Q1976.21 434.751 1976.21 440.677 Z" fill="#000000" fill-rule="evenodd" fill-opacity="1"></path><path clip-path="url(#clip390)" d="M 0 0 M1997.73 433.478 L1997.73 419.45 L2001.99 419.45 L2001.99 455.468 L1997.73 455.468 L1997.73 451.579 Q1996.39 453.894 1994.33 455.029 Q1992.29 456.14 1989.42 456.14 Q1984.72 456.14 1981.76 452.39 Q1978.82 448.64 1978.82 442.529 Q1978.82 436.418 1981.76 432.668 Q1984.72 428.918 1989.42 428.918 Q1992.29 428.918 1994.33 430.052 Q1996.39 431.163 1997.73 433.478 M1983.22 442.529 Q1983.22 447.228 1985.14 449.913 Q1987.09 452.575 1990.47 452.575 Q1993.84 452.575 1995.79 449.913 Q1997.73 447.228 1997.73 442.529 Q1997.73 437.83 1995.79 435.168 Q1993.84 432.482 1990.47 432.482 Q1987.09 432.482 1985.14 435.168 Q1983.22 437.83 1983.22 442.529 Z" fill="#000000" fill-rule="evenodd" fill-opacity="1"></path><path clip-path="url(#clip390)" d="M 0 0 M2028.64 441.441 L2028.64 443.524 L2009.05 443.524 Q2009.33 447.922 2011.69 450.237 Q2014.08 452.529 2018.31 452.529 Q2020.77 452.529 2023.06 451.927 Q2025.37 451.325 2027.64 450.121 L2027.64 454.149 Q2025.35 455.121 2022.94 455.63 Q2020.53 456.14 2018.06 456.14 Q2011.85 456.14 2008.22 452.529 Q2004.61 448.917 2004.61 442.76 Q2004.61 436.394 2008.03 432.668 Q2011.48 428.918 2017.32 428.918 Q2022.55 428.918 2025.58 432.297 Q2028.64 435.654 2028.64 441.441 M2024.38 440.191 Q2024.33 436.695 2022.41 434.612 Q2020.51 432.529 2017.36 432.529 Q2013.8 432.529 2011.65 434.543 Q2009.52 436.556 2009.19 440.214 L2024.38 440.191 Z" fill="#000000" fill-rule="evenodd" fill-opacity="1"></path><path clip-path="url(#clip390)" d="M 0 0 M2048.13 433.524 Q2047.41 433.107 2046.55 432.922 Q2045.72 432.714 2044.7 432.714 Q2041.09 432.714 2039.15 435.075 Q2037.22 437.413 2037.22 441.811 L2037.22 455.468 L2032.94 455.468 L2032.94 429.543 L2037.22 429.543 L2037.22 433.57 Q2038.57 431.209 2040.72 430.075 Q2042.87 428.918 2045.95 428.918 Q2046.39 428.918 2046.92 428.987 Q2047.46 429.033 2048.1 429.149 L2048.13 433.524 Z" fill="#000000" fill-rule="evenodd" fill-opacity="1"></path><path clip-path="url(#clip390)" d="M1794.55 473.068 L1794.55 524.268 L1845.75 524.268 L1845.75 473.068 L1794.55 473.068 Z" fill="#000000" fill-rule="evenodd" fill-opacity="1" stroke="none"></path>
<path clip-path="url(#clip390)" d="M 0 0 M1920.16 484.56 Q1915.07 484.56 1912.06 488.356 Q1909.08 492.152 1909.08 498.703 Q1909.08 505.231 1912.06 509.027 Q1915.07 512.823 1920.16 512.823 Q1925.26 512.823 1928.22 509.027 Q1931.21 505.231 1931.21 498.703 Q1931.21 492.152 1928.22 488.356 Q1925.26 484.56 1920.16 484.56 M1920.16 480.763 Q1927.43 480.763 1931.79 485.648 Q1936.14 490.509 1936.14 498.703 Q1936.14 506.874 1931.79 511.759 Q1927.43 516.62 1920.16 516.62 Q1912.87 516.62 1908.5 511.759 Q1904.15 506.897 1904.15 498.703 Q1904.15 490.509 1908.5 485.648 Q1912.87 480.763 1920.16 480.763 Z" fill="#000000" fill-rule="evenodd" fill-opacity="1"></path><path clip-path="url(#clip390)" d="M 0 0 M1959.22 503.009 Q1959.22 498.31 1957.27 495.648 Q1955.35 492.962 1951.97 492.962 Q1948.59 492.962 1946.65 495.648 Q1944.72 498.31 1944.72 503.009 Q1944.72 507.708 1946.65 510.393 Q1948.59 513.055 1951.97 513.055 Q1955.35 513.055 1957.27 510.393 Q1959.22 507.708 1959.22 503.009 M1944.72 493.958 Q1946.07 491.643 1948.1 490.532 Q1950.16 489.398 1953.01 489.398 Q1957.73 489.398 1960.67 493.148 Q1963.64 496.898 1963.64 503.009 Q1963.64 509.12 1960.67 512.87 Q1957.73 516.62 1953.01 516.62 Q1950.16 516.62 1948.1 515.509 Q1946.07 514.374 1944.72 512.059 L1944.72 515.948 L1940.44 515.948 L1940.44 479.93 L1944.72 479.93 L1944.72 493.958 Z" fill="#000000" fill-rule="evenodd" fill-opacity="1"></path><path clip-path="url(#clip390)" d="M 0 0 M1984.63 490.786 L1984.63 494.814 Q1982.83 493.888 1980.88 493.425 Q1978.94 492.962 1976.85 492.962 Q1973.68 492.962 1972.09 493.935 Q1970.51 494.907 1970.51 496.851 Q1970.51 498.333 1971.65 499.189 Q1972.78 500.023 1976.21 500.786 L1977.66 501.11 Q1982.2 502.083 1984.1 503.865 Q1986.02 505.624 1986.02 508.796 Q1986.02 512.407 1983.15 514.513 Q1980.3 516.62 1975.3 516.62 Q1973.22 516.62 1970.95 516.203 Q1968.71 515.809 1966.21 514.999 L1966.21 510.601 Q1968.57 511.828 1970.86 512.453 Q1973.15 513.055 1975.4 513.055 Q1978.41 513.055 1980.03 512.036 Q1981.65 510.995 1981.65 509.12 Q1981.65 507.384 1980.47 506.458 Q1979.31 505.532 1975.35 504.675 L1973.87 504.328 Q1969.91 503.495 1968.15 501.782 Q1966.39 500.046 1966.39 497.036 Q1966.39 493.379 1968.98 491.388 Q1971.58 489.398 1976.35 489.398 Q1978.71 489.398 1980.79 489.745 Q1982.87 490.092 1984.63 490.786 Z" fill="#000000" fill-rule="evenodd" fill-opacity="1"></path><path clip-path="url(#clip390)" d="M 0 0 M1994.7 482.661 L1994.7 490.023 L2003.47 490.023 L2003.47 493.333 L1994.7 493.333 L1994.7 507.407 Q1994.7 510.578 1995.56 511.481 Q1996.44 512.384 1999.1 512.384 L2003.47 512.384 L2003.47 515.948 L1999.1 515.948 Q1994.17 515.948 1992.29 514.12 Q1990.42 512.268 1990.42 507.407 L1990.42 493.333 L1987.29 493.333 L1987.29 490.023 L1990.42 490.023 L1990.42 482.661 L1994.7 482.661 Z" fill="#000000" fill-rule="evenodd" fill-opacity="1"></path><path clip-path="url(#clip390)" d="M 0 0 M2019.72 502.916 Q2014.56 502.916 2012.57 504.097 Q2010.58 505.277 2010.58 508.124 Q2010.58 510.393 2012.06 511.735 Q2013.57 513.055 2016.14 513.055 Q2019.68 513.055 2021.81 510.555 Q2023.96 508.032 2023.96 503.865 L2023.96 502.916 L2019.72 502.916 M2028.22 501.157 L2028.22 515.948 L2023.96 515.948 L2023.96 512.013 Q2022.5 514.374 2020.33 515.509 Q2018.15 516.62 2015 516.62 Q2011.02 516.62 2008.66 514.397 Q2006.32 512.152 2006.32 508.402 Q2006.32 504.027 2009.24 501.805 Q2012.18 499.583 2017.99 499.583 L2023.96 499.583 L2023.96 499.166 Q2023.96 496.226 2022.02 494.629 Q2020.09 493.009 2016.6 493.009 Q2014.38 493.009 2012.27 493.541 Q2010.16 494.073 2008.22 495.138 L2008.22 491.203 Q2010.56 490.3 2012.76 489.861 Q2014.96 489.398 2017.04 489.398 Q2022.66 489.398 2025.44 492.314 Q2028.22 495.231 2028.22 501.157 Z" fill="#000000" fill-rule="evenodd" fill-opacity="1"></path><path clip-path="url(#clip390)" d="M 0 0 M2051.34 491.018 L2051.34 494.999 Q2049.54 494.004 2047.71 493.518 Q2045.9 493.009 2044.05 493.009 Q2039.91 493.009 2037.62 495.648 Q2035.33 498.263 2035.33 503.009 Q2035.33 507.754 2037.62 510.393 Q2039.91 513.009 2044.05 513.009 Q2045.9 513.009 2047.71 512.522 Q2049.54 512.013 2051.34 511.018 L2051.34 514.953 Q2049.56 515.786 2047.64 516.203 Q2045.74 516.62 2043.59 516.62 Q2037.73 516.62 2034.28 512.939 Q2030.84 509.259 2030.84 503.009 Q2030.84 496.666 2034.31 493.032 Q2037.8 489.398 2043.87 489.398 Q2045.84 489.398 2047.71 489.814 Q2049.59 490.208 2051.34 491.018 Z" fill="#000000" fill-rule="evenodd" fill-opacity="1"></path><path clip-path="url(#clip390)" d="M 0 0 M2055.81 479.93 L2060.07 479.93 L2060.07 515.948 L2055.81 515.948 L2055.81 479.93 Z" fill="#000000" fill-rule="evenodd" fill-opacity="1"></path><path clip-path="url(#clip390)" d="M 0 0 M2086.71 501.921 L2086.71 504.004 L2067.13 504.004 Q2067.41 508.402 2069.77 510.717 Q2072.15 513.009 2076.39 513.009 Q2078.84 513.009 2081.14 512.407 Q2083.45 511.805 2085.72 510.601 L2085.72 514.629 Q2083.43 515.601 2081.02 516.11 Q2078.61 516.62 2076.14 516.62 Q2069.93 516.62 2066.3 513.009 Q2062.69 509.397 2062.69 503.24 Q2062.69 496.874 2066.11 493.148 Q2069.56 489.398 2075.4 489.398 Q2080.63 489.398 2083.66 492.777 Q2086.71 496.134 2086.71 501.921 M2082.46 500.671 Q2082.41 497.175 2080.49 495.092 Q2078.59 493.009 2075.44 493.009 Q2071.88 493.009 2069.72 495.023 Q2067.59 497.036 2067.27 500.694 L2082.46 500.671 Z" fill="#000000" fill-rule="evenodd" fill-opacity="1"></path></svg>